<?xml version="1.0" encoding="UTF-8"?>
<svg version="1.1" xmlns="http://www.w3.org/2000/svg" width="1024" height="1024">
<path d="M0 0 C0.9290918 0.02465332 1.85818359 0.04930664 2.81542969 0.07470703 C5.94004373 0.16130942 9.06362061 0.26517327 12.1875 0.375 C13.69534058 0.4210437 13.69534058 0.4210437 15.23364258 0.46801758 C16.18134521 0.50693115 17.12904785 0.54584473 18.10546875 0.5859375 C18.95262451 0.6173584 19.79978027 0.6487793 20.67260742 0.68115234 C23.19165511 1.02625633 24.77037228 1.80953855 27 3 C28.60318815 3.52691136 30.21929354 4.01550305 31.84375 4.47265625 C32.76027344 4.73240234 33.67679688 4.99214844 34.62109375 5.25976562 C36.04615234 5.65711914 36.04615234 5.65711914 37.5 6.0625 C38.92505859 6.4656543 38.92505859 6.4656543 40.37890625 6.87695312 C45.22015958 8.25686001 45.22015958 8.25686001 50.09912109 9.49243164 C78.0810887 16.96411295 105.65572527 41.94444598 122.52490234 64.6328125 C123.64139082 66.12090269 124.81571644 67.56527655 126 69 C126.66 69 127.32 69 128 69 C129.30869524 67.1867844 130.54432975 65.3207932 131.75 63.4375 C143.61674615 45.65714222 160.98456229 29.37638186 180.27734375 19.87890625 C182.1919953 19.0136745 182.1919953 19.0136745 184 17 C197.85511523 10.34654087 215.23298966 2.33802628 231 3 C231.33 2.34 231.66 1.68 232 1 C268.54945892 -0.67472844 268.54945892 -0.67472844 286 2 C286.6811084 2.10328613 287.3622168 2.20657227 288.06396484 2.31298828 C310.2856352 5.86034104 329.94993424 14.88059723 349.26098633 26.07958984 C351.15472437 27.14284747 351.15472437 27.14284747 354 28 C355.13480764 29.13480764 356.26523431 30.27428495 357.375 31.43359375 C359.33130074 33.3193548 361.42036348 34.9531723 363.5625 36.625 C372.43050668 43.63999036 380.8897149 51.17944588 388 60 C388.73347656 60.87269531 389.46695313 61.74539063 390.22265625 62.64453125 C418.64929104 97.73858593 430.45169188 143.41641692 426 188 C421.79268013 222.32962941 408.06643106 253.67699731 387 281 C386.59845703 281.53012695 386.19691406 282.06025391 385.78320312 282.60644531 C379.40492721 291.0228921 372.60381983 298.87113185 365.35644531 306.54638672 C363.44343369 308.59643553 361.60006981 310.70567145 359.75 312.8125 C352.29228765 321.14759027 344.18179296 328.89815055 336.21484375 336.7421875 C333.74826872 339.25661495 331.54352172 341.90788473 329.33203125 344.64453125 C328.89246094 345.09183594 328.45289063 345.53914063 328 346 C327.34 346 326.68 346 326 346 C325.72907469 346.59573436 325.45814938 347.19146873 325.17901421 347.80525565 C324.01362729 349.97463268 322.86753745 351.38303901 321.13577271 353.11590958 C320.25383397 354.00567155 320.25383397 354.00567155 319.35407829 354.91340852 C318.7075889 355.55543647 318.06109951 356.19746441 317.39501953 356.85894775 C316.70868502 357.54840225 316.0223505 358.23785675 315.31521797 358.9482038 C313.00916227 361.26225081 310.69600665 363.56906697 308.3828125 365.87597656 C306.7301954 367.53130296 305.07800425 369.1870547 303.4262085 370.84320068 C298.93515312 375.34338809 294.43777698 379.83720892 289.93898773 384.32966328 C285.71507768 388.54903116 281.49517274 392.77239844 277.27500081 396.99550459 C268.40950267 405.86670618 259.53788366 414.73176624 250.66416287 423.59474179 C243.04411291 431.20585034 235.42933028 438.82219575 227.81835938 446.44238281 C218.98424483 455.28718959 210.14690887 464.12875686 201.30437279 472.96514487 C196.62191822 477.64447419 191.94084256 482.32516139 187.26324463 487.00934601 C182.86835214 491.40999441 178.4686371 495.80576241 174.06507111 500.19773102 C172.44515371 501.81499272 170.82695653 503.43397946 169.21056366 505.05476379 C167.01327298 507.25747539 164.80998734 509.4540036 162.60498047 511.64898682 C161.95849108 512.29993765 161.31200169 512.95088849 160.64592171 513.6215651 C156.22830028 518 156.22830028 518 154 518 C154 518.66 154 519.32 154 520 C146.85748421 526.15125409 136.82448648 533.78642421 127 534 C111.35480904 531.22424031 100.84396375 520.15837472 90.06640625 509.2265625 C89.05707372 508.21093969 88.047211 507.19584355 87.03684998 506.1812439 C84.40834325 503.53958444 81.78550935 500.89237345 79.16436768 498.2434082 C74.94723608 493.98273145 70.72297631 489.72914698 66.49561882 485.47861862 C65.02692183 483.99973767 63.5616999 482.51747834 62.09681702 481.03482056 C60.7641404 479.69234756 60.7641404 479.69234756 59.40454102 478.32275391 C58.62417984 477.53413971 57.84381866 476.74552551 57.03981018 475.93301392 C54.95352494 473.84645901 54.95352494 473.84645901 52 472 C51.04439573 470.96255031 50.1234328 469.89257932 49.23107624 468.80025101 C46.09998628 465.06973004 42.75738858 461.62576117 39.30278015 458.19598389 C38.65471887 457.54847931 38.00665759 456.90097474 37.33895808 456.23384881 C35.18366299 454.08157083 33.02481462 451.93289361 30.8659668 449.78417969 C29.31297131 448.23474342 27.76021258 446.68506982 26.20767212 445.13517761 C22.87134419 441.8053857 19.53351605 438.47710754 16.19455528 435.14995575 C10.90824178 429.8819872 5.62632184 424.60962833 0.34516907 419.33648682 C-7.06544772 411.93776919 -14.47709818 404.54008949 -21.89038086 397.14404297 C-22.36013481 396.67537915 -22.82988875 396.20671532 -23.31387766 395.72384956 C-29.97397399 389.07934955 -36.63556727 382.43635236 -43.29776534 375.79395977 C-44.0010319 375.09278318 -44.0010319 375.09278318 -44.71850586 374.37744141 C-45.42090685 373.67713071 -45.42090685 373.67713071 -46.13749776 372.96267232 C-53.96898742 365.15428564 -61.79650141 357.34192735 -69.62098569 349.52652097 C-74.86292269 344.29110103 -80.10932121 339.06020749 -85.35913622 333.83268785 C-88.63395735 330.5696561 -91.90453181 327.30239311 -95.17396164 324.03396034 C-96.6826088 322.52744776 -98.192962 321.02264123 -99.70520973 319.51974297 C-107.61644804 311.65549904 -115.10694824 303.78351167 -122 295 C-123.04132795 293.78868373 -124.09004385 292.58359186 -125.15234375 291.390625 C-143.96767337 270.22461205 -157.95749649 244.56883715 -166 217.4375 C-166.29084473 216.46296875 -166.58168945 215.4884375 -166.88134766 214.484375 C-168.52066428 208.66187186 -169.40755817 203.1480934 -169.69140625 197.10180664 C-169.79324219 196.40821045 -169.89507812 195.71461426 -170 195 C-170.66 194.67 -171.32 194.34 -172 194 C-174.36500085 150.02313634 -169.00116705 108.49294395 -142.8359375 71.73828125 C-140.81437143 69.27260263 -140.81437143 69.27260263 -141 67 C-139.87104211 65.82167704 -138.73269888 64.65129692 -137.55566406 63.52099609 C-135.84894249 61.85230881 -134.23303787 60.12005408 -132.6171875 58.36328125 C-114.6573969 38.89366038 -92.98576381 18.97417216 -67 11 C-66.34 11 -65.68 11 -65 11 C-64.67 10.34 -64.34 9.68 -64 9 C-61.875 8.2890625 -61.875 8.2890625 -59 7.625 C-57.3603125 7.24408203 -57.3603125 7.24408203 -55.6875 6.85546875 C-54.470625 6.57316406 -53.25375 6.29085938 -52 6 C-50.70749914 5.66597179 -49.4158491 5.32863684 -48.125 4.98828125 C-32.30513874 0.90119861 -16.32542533 -0.52026081 0 0 Z M247.1953125 68.7265625 C242.12982943 74.22830727 240.73841062 79.44040044 240.8046875 86.9296875 C240.81113281 88.21875 240.81757812 89.5078125 240.82421875 90.8359375 C240.84092537 92.18229442 240.85785521 93.52864859 240.875 94.875 C240.88504336 96.24478517 240.89416683 97.61457742 240.90234375 98.984375 C240.92585588 102.32309756 240.9587207 105.66145761 241 109 C242.25167969 108.98839844 243.50335937 108.97679687 244.79296875 108.96484375 C256.05045907 108.89180593 267.30778353 108.99625113 278.5625 109.25 C279.81635498 109.26409912 281.07020996 109.27819824 282.36206055 109.29272461 C283.54324463 109.32503174 284.72442871 109.35733887 285.94140625 109.390625 C286.99013916 109.41157227 288.03887207 109.43251953 289.11938477 109.45410156 C292.73767573 110.13979515 294.39313942 111.43308805 297 114 C299.15041998 117.17995989 299.37430152 120.16152348 299.67578125 123.9453125 C299.78212891 125.10546875 299.88847656 126.265625 299.99804688 127.4609375 C300.20560154 129.87940053 300.40371648 132.2986946 300.59179688 134.71875 C301.47324278 144.05898381 303.41088623 152.01805853 310.5625 158.5 C316.57606829 163.27752308 322.40841682 164.04878909 330 164 C335.60866514 163.13354509 339.24207941 160.53083613 342.68359375 156.0859375 C348.50574461 146.86033347 349.14919937 137.10402736 349.203125 126.48828125 C349.20882507 125.5981987 349.21452515 124.70811615 349.22039795 123.7910614 C349.22979374 121.91613941 349.2363602 120.0412013 349.24023438 118.16625977 C349.24991359 115.33775117 349.28097825 112.50997849 349.3125 109.68164062 C349.39690149 95.48116753 349.26558224 81.98003668 339 71 C316.87547328 50.92534955 269.75644851 47.14209904 247.1953125 68.7265625 Z M41 82 C39.75437605 84.28249503 39.75437605 84.28249503 39.09765625 87.10546875 C38.7742627 88.27770996 38.45086914 89.44995117 38.11767578 90.65771484 C37.74391981 92.1048345 37.37147767 93.55229382 37 95 C36.53037183 96.77961456 36.06011079 98.55906218 35.58935547 100.33837891 C34.16206593 105.77124953 32.76515043 111.21162063 31.37362671 116.65374756 C29.73142875 123.07210497 28.07680231 129.48725941 26.421875 135.90234375 C26.24689672 136.58090172 26.07191845 137.25945969 25.8916378 137.95858002 C21.5824551 154.66474614 17.20350148 171.35248096 12.80443573 188.03517914 C12.1886053 190.37080798 11.57320532 192.70654997 10.95782471 195.04229736 C5.99275259 213.88028983 1.00200158 232.70994033 -4.41137695 251.42529297 C-4.76417725 252.66037598 -5.11697754 253.89545898 -5.48046875 255.16796875 C-5.77848389 256.19172607 -6.07649902 257.2154834 -6.38354492 258.27026367 C-6.98797647 260.94675838 -7.12153599 263.26715866 -7 266 C-7.66 266 -8.32 266 -9 266 C-9.22945313 264.78054688 -9.45890625 263.56109375 -9.6953125 262.3046875 C-11.10121209 255.99667054 -13.47630545 250.11124645 -15.875 244.125 C-16.52662109 242.43503906 -16.52662109 242.43503906 -17.19140625 240.7109375 C-17.62066406 239.63328125 -18.04992187 238.555625 -18.4921875 237.4453125 C-19.07009033 235.98375732 -19.07009033 235.98375732 -19.65966797 234.49267578 C-21.1592806 231.7037787 -22.34717596 230.68035859 -25 229 C-32.69439299 227.1282917 -41.32694266 227.83890171 -49.1875 227.83203125 C-50.53930698 227.82880825 -51.89111363 227.82544344 -53.24291992 227.82194519 C-56.06006681 227.815998 -58.87718322 227.81410086 -61.69433594 227.81469727 C-65.27811188 227.81479899 -68.86169019 227.80111619 -72.44541931 227.78392506 C-75.23206456 227.77273276 -78.01866296 227.77078021 -80.80532837 227.77130699 C-82.76045201 227.7695773 -84.71556103 227.75879093 -86.6706543 227.74775696 C-97.03266656 227.58675733 -97.03266656 227.58675733 -107 230 C-109.55884096 232.8793111 -110.81477471 235.11026891 -111 239 C-109.45258438 243.16397697 -109.45258438 243.16397697 -106.31671143 246.16159058 C-103.17273299 247.29938492 -100.46321921 247.23907633 -97.12011719 247.22705078 C-96.09511612 247.22748886 -96.09511612 247.22748886 -95.04940796 247.22793579 C-92.79843294 247.22654624 -90.54779196 247.21100302 -88.296875 247.1953125 C-86.73317648 247.19158103 -85.16947562 247.18873469 -83.60577393 247.18673706 C-79.49578362 247.17911114 -75.3859353 247.15947164 -71.27600098 247.1373291 C-67.07985352 247.11684822 -62.88368306 247.10773055 -58.6875 247.09765625 C-50.45826827 247.07622472 -42.22915181 247.04210139 -34 247 C-33.88843567 247.5580986 -33.77687134 248.1161972 -33.66192627 248.69120789 C-32.55901144 253.95468126 -31.11069126 258.8835764 -29.171875 263.89453125 C-28.90038635 264.60800217 -28.62889771 265.32147308 -28.34918213 266.05656433 C-27.77737458 267.55427095 -27.20244898 269.05079061 -26.62451172 270.54614258 C-25.75729249 272.79360102 -24.90338783 275.04579187 -24.05078125 277.29882812 C-21.53199215 283.90424071 -18.91721863 290.46677018 -15.953125 296.88671875 C-15.31358887 298.27250122 -15.31358887 298.27250122 -14.66113281 299.6862793 C-12.49845675 302.6985781 -10.44116406 303.70003538 -7 305 C-3.1631358 304.47077735 -0.87208385 303.80040572 1.99609375 301.16796875 C5.01881354 296.38936105 6.08030548 291.26427476 7.4375 285.8125 C8.04229095 283.47117898 8.64776333 281.13003387 9.25390625 278.7890625 C9.69500732 277.06284668 9.69500732 277.06284668 10.14501953 275.30175781 C11.513055 270.01868766 12.99996863 264.77043107 14.48999023 259.52075195 C15.21493453 256.94160513 15.92628368 254.38261884 16.43334961 251.75073242 C17.14734023 248.28475554 18.07616224 244.88755765 19.01171875 241.4765625 C19.43749958 239.90949003 19.86302305 238.34234761 20.28833008 236.77514648 C20.51549713 235.93958221 20.74266418 235.10401794 20.97671509 234.24313354 C25.92472517 216.01743552 30.66449953 197.74184824 35.3125 179.4375 C35.60232758 178.29669983 35.89215515 177.15589966 36.19076538 175.98052979 C40.1644158 160.3296585 44.09392503 144.66786305 48 129 C49.86252192 132.3551954 50.82271437 135.69499259 51.78979492 139.40136719 C52.04280963 140.36353024 52.04280963 140.36353024 52.30093575 141.34513092 C52.86502185 143.49462637 53.42272044 145.64572706 53.98046875 147.796875 C54.38480235 149.34293533 54.78953167 150.88889221 55.19462585 152.43475342 C56.06928702 155.77605384 56.94109549 159.11808117 57.81072998 162.46069336 C59.2035308 167.81415076 60.60262856 173.16595066 62.00244141 178.51757812 C64.49769262 188.06079875 66.9870986 197.60553717 69.47515869 207.15063477 C85.52246552 268.82733794 85.52246552 268.82733794 101.78765869 330.44677734 C102.42038868 332.82407958 103.05141998 335.20183469 103.68060303 337.58007812 C104.52653581 340.77488639 105.37930709 343.96778272 106.234375 347.16015625 C106.47388885 348.06923233 106.71340271 348.97830841 106.96017456 349.91493225 C109.47944086 360.17839959 109.47944086 360.17839959 116 368 C119.45728358 368.75011367 119.45728358 368.75011367 123 368 C127.37531439 364.44670929 129.20261787 360.77738321 130.83203125 355.515625 C131.06952591 354.79177109 131.30702057 354.06791718 131.55171204 353.3221283 C132.31981884 350.96917705 133.06626837 348.60997019 133.8125 346.25 C134.34422296 344.60675087 134.87727503 342.96393124 135.41162109 341.3215332 C136.7239795 337.27616746 138.01933313 333.2256214 139.30804443 329.17266846 C140.2664625 326.1633355 141.23659406 323.15781927 142.20703125 320.15234375 C143.48786818 316.17589966 144.75951669 312.19669626 146.0234375 308.21484375 C148.65931446 299.91330015 151.33527867 291.62466768 154.01489258 283.3371582 C154.33314247 282.35284569 154.33314247 282.35284569 154.65782166 281.34864807 C155.09450405 279.99807498 155.53124182 278.64751978 155.96803284 277.29698181 C157.36032198 272.9890597 158.74415243 268.67850452 160.12307739 264.36628723 C167.35363536 241.7666443 175.02225626 219.34661569 183 197 C186.21100262 203.97562638 189.01837349 211.07500607 191.75 218.25 C192.18320557 219.38228027 192.61641113 220.51456055 193.06274414 221.68115234 C194.37761997 225.11983587 195.68909201 228.55980218 197 232 C197.77463017 234.02868761 198.54936377 236.05733574 199.32421875 238.0859375 C204.34568299 251.24298738 204.34568299 251.24298738 206.53515625 257.10546875 C207.98696552 260.98082004 209.47810304 264.83916159 211 268.6875 C211.2475 269.32494141 211.495 269.96238281 211.75 270.61914062 C214.56057442 277.81862212 214.56057442 277.81862212 220 283 C222.07467229 283.42804913 222.07467229 283.42804913 224.3125 283.4375 C225.05113281 283.47746094 225.78976562 283.51742187 226.55078125 283.55859375 C233.33851173 282.01051487 237.1658315 275.34648329 240.8125 269.9375 C241.85384729 268.42336273 242.89683037 266.91034923 243.94140625 265.3984375 C244.4533252 264.65561523 244.96524414 263.91279297 245.49267578 263.14746094 C248.35104869 259.07518234 251.40403031 255.15296092 254.453125 251.22265625 C256.19041118 249.17773006 256.19041118 249.17773006 256 247 C257.1665361 247.00888245 258.3330722 247.01776489 259.53495789 247.0269165 C270.52630623 247.10798916 281.51759393 247.16795918 292.50917339 247.20724869 C298.1601323 247.22812688 303.8108499 247.25644921 309.46166992 247.30175781 C314.91463914 247.34520662 320.36737619 247.36913536 325.82050514 247.37950897 C327.9013516 247.38690203 329.9821853 247.40133886 332.06293297 247.42292023 C334.97672396 247.451941 337.88955462 247.45595651 340.8034668 247.45410156 C341.66445984 247.46848267 342.52545288 247.48286377 343.41253662 247.49768066 C347.47877446 247.46965517 349.49412966 247.31964595 353.01228333 245.09661865 C355.38518648 242.59371013 355.93153836 241.61615474 356.3125 238.1875 C355.92835642 234.2692355 354.70743683 232.78706733 352 230 C349.45097539 228.72548769 347.65854905 228.88657938 344.80859375 228.90234375 C343.78185547 228.90556641 342.75511719 228.90878906 341.69726562 228.91210938 C340.62154297 228.92048828 339.54582031 228.92886719 338.4375 228.9375 C337.35791016 228.94201172 336.27832031 228.94652344 335.16601562 228.95117188 C332.44396053 228.96314823 329.72200768 228.98030385 327 229 C324.98630366 229 322.97261394 228.99334578 320.95892334 228.9888916 C312.49378429 228.97044749 304.02864795 228.95731193 295.56349373 228.94818783 C290.87451366 228.94296261 286.18555169 228.93586983 281.49658203 228.92456055 C276.96968279 228.9137111 272.44280098 228.90771894 267.91588974 228.90512276 C266.18789266 228.90327264 264.45989655 228.89965992 262.73190689 228.89426994 C260.31620453 228.88703197 257.90057471 228.88601022 255.48486328 228.88647461 C254.76786255 228.88287933 254.05086182 228.87928406 253.31213379 228.87557983 C250.257876 228.88195114 247.92287147 229.02570951 245 230 C243.09089955 232.23486009 243.09089955 232.23486009 241.20703125 235.0234375 C240.49482422 236.044375 239.78261719 237.0653125 239.04882812 238.1171875 C237.9418457 239.72980469 237.9418457 239.72980469 236.8125 241.375 C236.06291016 242.44234375 235.31332031 243.5096875 234.54101562 244.609375 C230.45733483 249.84432467 230.45733483 249.84432467 229 256 C228.34 256 227.68 256 227 256 C226.60304932 254.76314453 226.20609863 253.52628906 225.79711914 252.25195312 C223.84344134 246.39755106 221.55175042 240.69179704 219.24609375 234.96875 C218.78574234 233.8199939 218.32539093 232.67123779 217.85108948 231.4876709 C216.38233582 227.82412835 214.91000689 224.16203538 213.4375 220.5 C211.99667441 216.90922852 210.55657316 213.31816725 209.11660767 209.72705078 C208.16262639 207.34990911 207.20736854 204.97327935 206.25082397 202.59716797 C203.87476875 196.69257192 201.51675345 190.78196363 199.19580078 184.85546875 C198.7476149 183.71702515 198.29942902 182.57858154 197.83766174 181.40563965 C196.99441355 179.26150668 196.1565983 177.11522576 195.32530212 174.96643066 C193.32850284 169.90405839 191.42496439 165.26155334 188 161 C185.14164369 159.87153247 185.14164369 159.87153247 182.5625 160 C180.16397031 160 178.28608914 159.67735975 176 159 C171.52622842 163.72479724 169.62210289 167.99625374 167.7578125 174.1796875 C167.47286926 175.08344116 167.18792603 175.98719482 166.89434814 176.91833496 C165.95784934 179.89989036 165.0414852 182.88723814 164.125 185.875 C163.46695378 187.98298971 162.80758803 190.09056792 162.14697266 192.19775391 C160.77169382 196.59295573 159.40475131 200.99061897 158.04492188 205.390625 C156.0909133 211.71277177 154.11872902 218.0291066 152.140625 224.34375 C149.94793781 231.34657277 147.75821118 238.35029718 145.57406616 245.35578918 C142.01321613 256.77519843 138.43182894 268.18796057 134.82159424 279.59185791 C134.28875889 281.27523126 133.7564589 282.95877419 133.22479248 284.64251709 C129.27776655 297.13827681 125.17340776 309.57808541 121 322 C120.78861389 321.2082135 120.57722778 320.416427 120.35943604 319.60064697 C117.6580675 309.48328962 114.95474842 299.36645431 112.25 289.25 C112.03386803 288.44158157 111.81773605 287.63316315 111.59505463 286.80024719 C105.70110462 264.75654036 99.78488566 242.71959438 93.74316406 220.71582031 C90.75588033 209.82926698 87.85337287 198.92242464 85 188 C84.01 188 83.02 188 82 188 C82.66 187.67 83.32 187.34 84 187 C83.71617054 185.24871182 83.42260471 183.49899997 83.125 181.75 C82.96257812 180.77546875 82.80015625 179.8009375 82.6328125 178.796875 C82.14213947 176.0704981 82.14213947 176.0704981 80.9921875 174.078125 C80 172 80 172 79.57861328 168.90991211 C78.94177189 164.60653028 77.90809042 160.54930483 76.75 156.36328125 C76.53182617 155.56141891 76.31365234 154.75955658 76.08886719 153.93339539 C75.39651555 151.39200245 74.69842004 148.85223117 74 146.3125 C73.30290723 143.76170855 72.60697678 141.21060196 71.91113281 138.6594696 C71.47920189 137.07766018 71.0463012 135.49611516 70.61230469 133.91487122 C69.7078395 130.61738043 68.82348261 127.31852713 68 124 C67.4587224 121.90060492 66.91553581 119.80170166 66.37109375 117.703125 C66.05849609 116.49785156 65.74589844 115.29257812 65.42382812 114.05078125 C65.09833984 112.79652344 64.77285156 111.54226563 64.4375 110.25 C64.10814453 108.98027344 63.77878906 107.71054687 63.43945312 106.40234375 C62.62645801 103.26818868 61.81330089 100.13407573 61 97 C60.01 97 59.02 97 58 97 C58.99 96.505 58.99 96.505 60 96 C58.82830357 87.98223417 58.82830357 87.98223417 55 81 C50.01526643 77.5106865 45.68235789 78.57296594 41 82 Z " fill="#246CA4" transform="translate(385,263)"/>
<path d="M0 0 C1.89373804 1.06325762 1.89373804 1.06325762 4.73901367 1.92041016 C5.87382132 3.0552178 7.00424798 4.19469511 8.11401367 5.35400391 C10.07031441 7.23976496 12.15937715 8.87358246 14.30151367 10.54541016 C23.16952035 17.56040052 31.62872858 25.09985604 38.73901367 33.92041016 C39.47249023 34.79310547 40.2059668 35.66580078 40.96166992 36.56494141 C69.38830471 71.65899608 81.19070555 117.33682707 76.73901367 161.92041016 C72.5316938 196.25003957 58.80544473 227.59740747 37.73901367 254.92041016 C37.3374707 255.45053711 36.93592773 255.98066406 36.5222168 256.52685547 C30.14394088 264.94330226 23.3428335 272.79154201 16.09545898 280.46679688 C14.18244736 282.51684569 12.33908349 284.6260816 10.48901367 286.73291016 C3.03130132 295.06800043 -5.07919337 302.81856071 -13.04614258 310.66259766 C-15.51271761 313.17702511 -17.71746461 315.82829489 -19.92895508 318.56494141 C-20.36852539 319.01224609 -20.8080957 319.45955078 -21.26098633 319.92041016 C-21.92098633 319.92041016 -22.58098633 319.92041016 -23.26098633 319.92041016 C-23.6673743 320.8140117 -23.6673743 320.8140117 -24.08197212 321.72566581 C-25.24735903 323.89504284 -26.39344888 325.30344916 -28.12521362 327.03631973 C-28.71317278 327.62949438 -29.30113194 328.22266903 -29.90690804 328.83381867 C-30.55339743 329.47584662 -31.19988682 330.11787457 -31.8659668 330.77935791 C-32.89546857 331.81353965 -32.89546857 331.81353965 -33.94576836 332.86861396 C-36.25182406 335.18266096 -38.56497968 337.48947713 -40.87817383 339.79638672 C-42.53079092 341.45171312 -44.18298208 343.10746485 -45.83477783 344.76361084 C-50.3258332 349.26379825 -54.82320935 353.75761908 -59.3219986 358.25007343 C-63.54590865 362.46944132 -67.76581359 366.6928086 -71.98598552 370.91591474 C-80.85148366 379.78711634 -89.72310266 388.65217639 -98.59682345 397.51515195 C-106.21687341 405.1262605 -113.83165605 412.7426059 -121.44262695 420.36279297 C-130.2767415 429.20759974 -139.11407745 438.04916701 -147.95661354 446.88555503 C-152.63906811 451.56488434 -157.32014377 456.24557155 -161.9977417 460.92975616 C-166.39263419 465.33040456 -170.79234922 469.72617257 -175.19591522 474.11814117 C-176.81583262 475.73540287 -178.4340298 477.35438961 -180.05042267 478.97517395 C-182.24771334 481.17788554 -184.45099899 483.37441376 -186.65600586 485.56939697 C-187.30249525 486.22034781 -187.94898464 486.87129864 -188.61506462 487.54197526 C-193.03268605 491.92041016 -193.03268605 491.92041016 -195.26098633 491.92041016 C-195.26098633 492.58041016 -195.26098633 493.24041016 -195.26098633 493.92041016 C-203.16436419 500.72693139 -211.89821351 506.30968543 -222.26098633 507.92041016 C-222.48520431 485.91078766 -222.6861073 463.90106173 -222.85938644 441.89097691 C-222.94038749 431.67091732 -223.02896753 421.45102916 -223.13549805 411.23120117 C-223.22834918 402.32182592 -223.30686972 393.41245826 -223.36830735 384.50280899 C-223.40132443 379.7867913 -223.44143153 375.07107815 -223.49871063 370.35528755 C-223.55244823 365.91240622 -223.58695526 361.46978172 -223.60701561 357.02662468 C-223.61769452 355.40004721 -223.63526832 353.77349733 -223.66043282 352.14707947 C-223.7889312 343.57950562 -223.62516676 336.55347073 -219.26098633 328.92041016 C-218.67417945 327.33925113 -218.11317024 325.74764496 -217.60449219 324.13964844 C-217.20709335 322.89662712 -217.20709335 322.89662712 -216.80166626 321.62849426 C-216.39287735 320.32279732 -216.39287735 320.32279732 -215.97583008 318.99072266 C-215.67848969 318.05544235 -215.38114929 317.12016205 -215.07479858 316.15653992 C-214.11112755 313.12102467 -213.15479586 310.0832517 -212.19848633 307.04541016 C-211.52535343 304.92116235 -210.85176462 302.79705895 -210.17773438 300.6730957 C-207.18239218 291.22419546 -204.20886026 281.76850462 -201.25317383 272.30712891 C-192.79296924 245.22550673 -183.88415847 218.31287319 -174.57778931 191.50961304 C-173.9529819 189.70896674 -173.32989696 187.90772178 -172.70858765 186.10586548 C-171.84397743 183.60182656 -170.9716534 181.10061666 -170.09692383 178.60009766 C-169.83912643 177.84982803 -169.58132904 177.09955841 -169.3157196 176.32655334 C-167.49012056 171.14954439 -167.49012056 171.14954439 -165.26098633 168.92041016 C-151.32247114 205.66371583 -151.32247114 205.66371583 -146.88598633 217.60791016 C-146.60682373 218.35274658 -146.32766113 219.09758301 -146.04003906 219.86499023 C-144.26098633 224.68445642 -144.26098633 224.68445642 -144.26098633 226.92041016 C-143.60098633 227.25041016 -142.94098633 227.58041016 -142.26098633 227.92041016 C-141.65551758 229.64306641 -141.65551758 229.64306641 -141.07348633 231.98291016 C-139.66203711 236.97003071 -137.80760964 241.66808145 -135.76098633 246.42041016 C-135.46426025 247.12689697 -135.16753418 247.83338379 -134.86181641 248.5612793 C-133.32873519 252.06407072 -132.51231544 253.75285741 -129.26098633 255.92041016 C-127.15042157 256.31100834 -127.15042157 256.31100834 -124.88598633 256.29541016 C-124.13575195 256.32376953 -123.38551758 256.35212891 -122.61254883 256.38134766 C-116.26480569 255.13710565 -112.96170698 249.03099912 -109.57348633 244.04541016 C-108.10725926 241.9200907 -106.64009237 239.80136376 -105.12414551 237.71107483 C-103.15105273 234.87608588 -103.15105273 234.87608588 -101.48999023 231.42454529 C-98.9725898 226.75580865 -96.31806687 222.04382369 -91.12384605 220.13505554 C-84.77170005 218.91949824 -78.32758197 219.29433431 -71.89770508 219.51025391 C-69.81651494 219.52664676 -67.7352597 219.53610182 -65.65400696 219.53895569 C-60.19764386 219.56165099 -54.74586196 219.66357809 -49.29095459 219.7869873 C-40.54533715 219.97255799 -31.79832445 220.04224934 -23.05109596 220.10183907 C-20.00053685 220.13481789 -16.952526 220.20485617 -13.90275574 220.28025818 C-12.03479227 220.30694394 -10.16681659 220.33279192 -8.29882812 220.35766602 C-7.03090424 220.40359642 -7.03090424 220.40359642 -5.73736572 220.45045471 C-1.40835461 220.47778078 0.2221971 220.32006019 3.76481628 217.58058167 C5.93077922 215.0507891 5.93077922 215.0507891 6.36401367 211.92041016 C5.48655264 207.70859718 4.2073658 206.48416117 0.73901367 203.92041016 C-3.00752825 203.28024473 -6.66014601 203.40356139 -10.44848633 203.54541016 C-11.4584668 203.55958984 -12.46844727 203.57376953 -13.5090332 203.58837891 C-18.54961254 203.50816109 -18.54961254 203.50816109 -23.26098633 204.92041016 C-23.26098633 204.26041016 -23.26098633 203.60041016 -23.26098633 202.92041016 C-49.99098633 203.25041016 -76.72098633 203.58041016 -104.26098633 203.92041016 C-104.92098633 205.24041016 -105.58098633 206.56041016 -106.26098633 207.92041016 C-107.23827671 209.41683827 -108.24174418 210.89636053 -109.26489258 212.36181641 C-109.84045898 213.19261719 -110.41602539 214.02341797 -111.0090332 214.87939453 C-112.22177814 216.61953339 -113.43532414 218.35911425 -114.6496582 220.09814453 C-115.22393555 220.92765625 -115.79821289 221.75716797 -116.38989258 222.61181641 C-116.91655518 223.36664307 -117.44321777 224.12146973 -117.98583984 224.89916992 C-119.416244 226.98829451 -119.416244 226.98829451 -120.26098633 229.92041016 C-120.92098633 229.92041016 -121.58098633 229.92041016 -122.26098633 229.92041016 C-128.30514551 216.37141998 -133.77043999 202.62334048 -139.13598633 188.79541016 C-146.24582538 170.48352113 -146.24582538 170.48352113 -153.51098633 152.23291016 C-153.94008301 151.15444824 -154.36917969 150.07598633 -154.8112793 148.96484375 C-157.78786701 141.50910915 -157.78786701 141.50910915 -162.26098633 134.92041016 C-164.37433242 134.2043875 -164.37433242 134.2043875 -166.51098633 134.54541016 C-167.74848633 134.66916016 -168.98598633 134.79291016 -170.26098633 134.92041016 C-170.26098633 134.26041016 -170.26098633 133.60041016 -170.26098633 132.92041016 C-175.15262998 134.95859501 -176.277477 137.64611071 -178.22335815 142.24423218 C-180.10375984 147.09403264 -181.65655784 152.03769686 -183.20239258 157.00244141 C-183.74862526 158.73528885 -183.74862526 158.73528885 -184.30589294 160.50314331 C-185.28206019 163.60428521 -186.25343158 166.70687509 -187.22241211 169.8102684 C-188.02999766 172.39347301 -188.84183277 174.97533379 -189.65366554 177.55720615 C-194.48573415 192.92672493 -199.24152565 208.31852194 -203.90579224 223.73980713 C-208.09152737 237.56519217 -212.61213951 251.26636466 -217.25317383 264.9453125 C-218.60373011 268.93220176 -219.93367976 272.9257279 -221.26098633 276.92041016 C-221.59098633 276.92041016 -221.92098633 276.92041016 -222.26098633 276.92041016 C-222.48946697 247.47611179 -222.66626498 218.03185552 -222.77163962 188.58685579 C-222.78414561 185.10494016 -222.79708894 181.62302629 -222.81030273 178.14111328 C-222.81292584 177.44797239 -222.81554894 176.75483149 -222.81825154 176.04068632 C-222.86167978 164.84014629 -222.94047726 153.64012329 -223.03251429 142.43988924 C-223.12626905 130.9340394 -223.18087632 119.428552 -223.20187128 107.92232764 C-223.21488039 101.46479687 -223.2453372 95.00843588 -223.3182869 88.55128098 C-223.38647911 82.46557241 -223.40703918 76.38150838 -223.39206314 70.29545403 C-223.3948003 68.06946416 -223.41450661 65.84341578 -223.45304108 63.6177578 C-223.68905313 49.27524329 -222.19173218 40.54093197 -212.26098633 29.92041016 C-211.06469512 28.50175741 -209.87005007 27.08170968 -208.67895508 25.65869141 C-207.61300879 24.50660479 -206.53628256 23.36438902 -205.44848633 22.23291016 C-204.85938477 21.61335449 -204.2702832 20.99379883 -203.66333008 20.35546875 C-193.55142273 9.88975268 -182.12092708 0.26655595 -168.98364258 -6.20068359 C-167.06899103 -7.06591535 -167.06899103 -7.06591535 -165.26098633 -9.07958984 C-151.40587109 -15.73304898 -134.02799667 -23.74156356 -118.26098633 -23.07958984 C-117.93098633 -23.73958984 -117.60098633 -24.39958984 -117.26098633 -25.07958984 C-113.82368904 -25.25061324 -110.38612466 -25.41557615 -106.94848633 -25.57958984 C-105.99135742 -25.62728516 -105.03422852 -25.67498047 -104.0480957 -25.72412109 C-65.93758336 -27.52057622 -32.83509585 -19.04194522 0 0 Z M-102.06567383 42.64697266 C-107.1311569 48.14871743 -108.5225757 53.36081059 -108.45629883 60.85009766 C-108.44985352 62.13916016 -108.4434082 63.42822266 -108.43676758 64.75634766 C-108.42006096 66.10270458 -108.40313112 67.44905874 -108.38598633 68.79541016 C-108.37594296 70.16519533 -108.3668195 71.53498757 -108.35864258 72.90478516 C-108.33513045 76.24350771 -108.30226562 79.58186777 -108.26098633 82.92041016 C-107.00930664 82.90880859 -105.75762695 82.89720703 -104.46801758 82.88525391 C-93.21052726 82.81221609 -81.9532028 82.91666129 -70.69848633 83.17041016 C-69.44463135 83.18450928 -68.19077637 83.1986084 -66.89892578 83.21313477 C-65.7177417 83.24544189 -64.53655762 83.27774902 -63.31958008 83.31103516 C-62.27084717 83.33198242 -61.22211426 83.35292969 -60.14160156 83.37451172 C-56.52331059 84.0602053 -54.86784691 85.3534982 -52.26098633 87.92041016 C-50.11056635 91.10037005 -49.8866848 94.08193364 -49.58520508 97.86572266 C-49.47885742 99.02587891 -49.37250977 100.18603516 -49.26293945 101.38134766 C-49.05538479 103.79981069 -48.85726985 106.21910476 -48.66918945 108.63916016 C-47.78774355 117.97939397 -45.85010009 125.93846868 -38.69848633 132.42041016 C-32.68491804 137.19793323 -26.85256951 137.96919925 -19.26098633 137.92041016 C-13.65232118 137.05395524 -10.01890692 134.45124629 -6.57739258 130.00634766 C-0.75524172 120.78074362 -0.11178696 111.02443752 -0.05786133 100.40869141 C-0.05216125 99.51860886 -0.04646118 98.62852631 -0.04058838 97.71147156 C-0.03119259 95.83654956 -0.02462613 93.96161146 -0.02075195 92.08666992 C-0.01107274 89.25816133 0.01999193 86.43038864 0.05151367 83.60205078 C0.13591517 69.40157769 0.00459591 55.90044684 -10.26098633 44.92041016 C-32.38551305 24.84575971 -79.50453782 21.0625092 -102.06567383 42.64697266 Z " fill="#FDCE28" transform="translate(734.260986328125,289.07958984375)"/>
<path d="M0 0 C2.64962971 2.34419689 3.8693745 4.60189832 5.3125 7.8125 C8.41803164 14.18701231 12.08028435 20.1386086 15.875 26.125 C16.45161377 27.0425708 17.02822754 27.9601416 17.62231445 28.90551758 C23.25642218 37.71181636 29.68513592 45.71059448 36.75 53.40625 C38 55 38 55 38 57 C38.99 57.33 39.98 57.66 41 58 C42.6484375 59.63671875 42.6484375 59.63671875 44.375 61.6875 C44.98859375 62.409375 45.6021875 63.13125 46.234375 63.875 C47.70259852 65.64206548 49.16515906 67.41351608 50.625 69.1875 C54.26985374 73.50377417 58.27415291 77.2639034 62.5 81 C66.97413683 84.9564681 71.16456899 88.97940269 75 93.5625 C77.4298792 96.44603951 80.04503466 98.65118139 83 101 C84.18796072 102.44481709 85.37493279 103.89059054 86.54296875 105.3515625 C88.84517064 107.95619842 91.48334121 110.14446192 94.1328125 112.38671875 C95.84770702 113.86841632 97.49565446 115.30410736 99 117 C99 117.66 99 118.32 99 119 C99.556875 119.20625 100.11375 119.4125 100.6875 119.625 C103.26591333 121.15811063 104.73759879 123.02297109 106.58203125 125.35546875 C108.60469313 127.70131076 110.93455482 129.59109214 113.30859375 131.5703125 C116.89294375 134.60004021 119.99698497 137.97110798 123 141.5625 C125.41739075 144.44332836 128.05289237 146.65964983 131 149 C131 149.66 131 150.32 131 151 C131.66 151 132.32 151 133 151 C134.71230248 152.61974559 136.37163262 154.2958946 138 156 C140.63337358 158.64683205 143.28093288 161.2788369 145.9375 163.90234375 C146.9583567 164.91403892 147.9791898 165.92575791 149 166.9375 C149.50789062 167.43701172 150.01578125 167.93652344 150.5390625 168.45117188 C153.06226737 170.95820236 155.44616893 173.48998938 157.6875 176.25390625 C159.88922264 179.12775125 159.88922264 179.12775125 163 181 C163 181.66 163 182.32 163 183 C163.66 183 164.32 183 165 183 C165 183.66 165 184.32 165 185 C165.5775 185.226875 166.155 185.45375 166.75 185.6875 C169.58434736 187.3408693 170.96762189 189.42963944 173 192 C174.06472782 192.91786881 175.14877303 193.81375654 176.25 194.6875 C177.61125 195.8321875 177.61125 195.8321875 179 197 C179 197.66 179 198.32 179 199 C179.66 199 180.32 199 181 199 C184.68728175 202.38831296 187.79971138 206.15965365 191 210 C193.69805919 212.84006231 196.49509382 215.43341151 199.5 217.9375 C201.85330408 219.91653132 203.87562451 221.92425824 205.8125 224.3125 C207.71869511 227.03075197 207.71869511 227.03075197 210 228 C210 228.66 210 229.32 210 230 C210.66 230 211.32 230 212 230 C213.39862061 231.41862488 213.39862061 231.41862488 215.04199219 233.41088867 C219.23144354 238.33404109 223.74487011 242.87104719 228.328125 247.42578125 C229.19894714 248.29518845 230.06976929 249.16459564 230.96697998 250.06034851 C233.72562833 252.81344218 236.4877456 255.56302488 239.25 258.3125 C241.12002358 260.17750186 242.98981749 262.04273405 244.859375 263.90820312 C248.96006272 267.99910141 253.0629337 272.08779509 257.16778564 276.17451477 C258.78036948 277.78117611 260.39101054 279.38974014 262 281 C259 281 259 281 256.8371582 279.19119263 C256.00015381 278.34451019 255.16314941 277.49782776 254.30078125 276.62548828 C253.83699066 276.16052948 253.37320007 275.69557068 252.89535522 275.21652222 C251.36066504 273.67463228 249.83676454 272.12250384 248.3125 270.5703125 C247.24853112 269.49820853 246.18382349 268.42683725 245.1184082 267.35617065 C242.31173971 264.53236129 239.51375027 261.70011231 236.71789551 258.86560059 C232.2447551 254.33333958 227.75897434 249.81359824 223.27255249 245.29449081 C221.70603832 243.71401603 220.14340361 242.12978405 218.58129883 240.54495239 C217.6206901 239.57431809 216.66000104 238.60376328 215.69921875 237.63330078 C214.86221436 236.78502716 214.02520996 235.93675354 213.1628418 235.06277466 C210.97961305 232.86157514 210.97961305 232.86157514 208 231 C207.04439573 229.96255031 206.1234328 228.89257932 205.23107624 227.80025101 C202.09998628 224.06973004 198.75738858 220.62576117 195.30278015 217.19598389 C194.65471887 216.54847931 194.00665759 215.90097474 193.33895808 215.23384881 C191.18366299 213.08157083 189.02481462 210.93289361 186.8659668 208.78417969 C185.31297131 207.23474342 183.76021258 205.68506982 182.20767212 204.13517761 C178.87134419 200.8053857 175.53351605 197.47710754 172.19455528 194.14995575 C166.90824178 188.8819872 161.62632184 183.60962833 156.34516907 178.33648682 C148.93455228 170.93776919 141.52290182 163.54008949 134.10961914 156.14404297 C133.63986519 155.67537915 133.17011125 155.20671532 132.68612234 154.72384956 C126.02602601 148.07934955 119.36443273 141.43635236 112.70223466 134.79395977 C112.23339029 134.32650871 111.76454592 133.85905765 111.28149414 133.37744141 C110.57909315 132.67713071 110.57909315 132.67713071 109.86250224 131.96267232 C102.03101258 124.15428564 94.20349859 116.34192735 86.37901431 108.52652097 C81.13707731 103.29110103 75.89067879 98.06020749 70.64086378 92.83268785 C67.36604265 89.5696561 64.09546819 86.30239311 60.82603836 83.03396034 C59.3173912 81.52744776 57.807038 80.02264123 56.29479027 78.51974297 C48.38355196 70.65549904 40.89305176 62.78351167 34 54 C32.95867205 52.78868373 31.90995615 51.58359186 30.84765625 50.390625 C19.616664 37.75649463 10.94934569 23.88468036 3 9 C2.42121094 7.91847656 1.84242188 6.83695312 1.24609375 5.72265625 C0 3 0 3 0 0 Z " fill="#296293" transform="translate(229,504)"/>
<path d="M0 0 C4.14613048 1.79037453 6.20962547 3.85386952 8 8 C8.58286182 11.49717093 8.64617644 13.80705888 6.93359375 16.96875 C4.40326612 20.33332735 2.21697428 22.37891993 -2 23.125 C-6.01841959 23.27098465 -8.69848603 22.38016123 -12 20 C-14.6859484 15.9710774 -15.61443138 12.81304584 -15 8 C-11.96933505 1.14112669 -7.28818465 -0.78087693 0 0 Z " fill="#FED12B" transform="translate(655,335)"/>
<path d="M0 0 C0.33 0 0.66 0 1 0 C1 55.44 1 110.88 1 168 C0.34 168 -0.32 168 -1 168 C-1.17717365 146.53856874 -1.3428533 125.07707632 -1.49477577 103.61545086 C-1.5655821 93.65089108 -1.64017748 83.68638635 -1.72363281 73.72192383 C-1.79634621 65.03889575 -1.86201159 56.35584819 -1.91914403 47.67270309 C-1.94965505 43.07324714 -1.9837423 38.47387933 -2.02626419 33.87451744 C-2.06615028 29.54822661 -2.09663459 25.22197284 -2.11981392 20.89556122 C-2.13000912 19.3052006 -2.14368084 17.71485801 -2.16103554 16.1245594 C-2.18416689 13.95791312 -2.19493759 11.7915498 -2.20254517 9.62480164 C-2.2117631 8.41080028 -2.22098103 7.19679892 -2.23047829 5.94600964 C-2 3 -2 3 0 0 Z " fill="#0A59A9" transform="translate(511,628)"/>
<path d="M0 0 C0.66 0 1.32 0 2 0 C0.67443115 2.93564734 -0.76441027 5.01521239 -3.03637695 7.29034424 C-3.97013657 8.23256332 -3.97013657 8.23256332 -4.92276001 9.19381714 C-5.60438202 9.87139069 -6.28600403 10.54896423 -6.98828125 11.24707031 C-7.70712494 11.96941864 -8.42596863 12.69176697 -9.16659546 13.43600464 C-11.54355666 15.82176741 -13.92775779 18.20014173 -16.3125 20.578125 C-17.9642417 22.2312135 -19.61568638 23.88459884 -21.2668457 25.53826904 C-24.72706096 29.00143318 -28.19086931 32.46095261 -31.65722656 35.91796875 C-36.10978736 40.35911743 -40.55328695 44.80920684 -44.99415588 49.262043 C-48.40134583 52.67644262 -51.81326351 56.08608571 -55.22665405 59.49428558 C-56.86765569 61.13394917 -58.50716227 62.77511039 -60.14517212 64.41776276 C-62.42923004 66.70687313 -64.71955444 68.98951868 -67.01171875 71.27050781 C-67.69334076 71.95617828 -68.37496277 72.64184875 -69.07723999 73.34829712 C-69.6997464 73.96516388 -70.32225281 74.58203064 -70.96362305 75.21759033 C-71.77551338 76.02834959 -71.77551338 76.02834959 -72.60380554 76.85548782 C-74 78 -74 78 -76 78 C-76 78.66 -76 79.32 -76 80 C-78.30078125 81.98046875 -78.30078125 81.98046875 -81.3125 84.1875 C-82.29863281 84.92355469 -83.28476562 85.65960937 -84.30078125 86.41796875 C-85.19152344 86.94003906 -86.08226562 87.46210937 -87 88 C-87.99 87.67 -88.98 87.34 -90 87 C-87.99771762 82.99543524 -81.98443446 80.91252854 -78 79 C-78 78.34 -78 77.68 -78 77 C-76.42578125 75.44921875 -76.42578125 75.44921875 -74.3125 73.6875 C-70.31616798 70.28606855 -66.63177475 66.69197615 -62.98828125 62.9140625 C-61.91126953 61.81191406 -61.91126953 61.81191406 -60.8125 60.6875 C-60.13832031 59.99011719 -59.46414063 59.29273438 -58.76953125 58.57421875 C-57 57 -57 57 -55 57 C-54.62294922 56.13181641 -54.62294922 56.13181641 -54.23828125 55.24609375 C-52.84407086 52.71716323 -51.26209642 51.0656954 -49.1875 49.0625 C-48.46820312 48.36125 -47.74890625 47.66 -47.0078125 46.9375 C-46.34523438 46.298125 -45.68265625 45.65875 -45 45 C-44.195625 44.195625 -43.39125 43.39125 -42.5625 42.5625 C-35.5 35.5 -35.5 35.5 -33.14453125 33.15234375 C-31.90193692 31.90522266 -30.66618413 30.6510489 -29.44921875 29.37890625 C-27.65428086 27.50616919 -26.16163323 26.07850757 -23.8125 24.9375 C-21.84661474 24.14717116 -21.84661474 24.14717116 -21.0859375 22.15722656 C-19.91802196 19.83714975 -18.64023393 18.38192823 -16.8125 16.546875 C-16.19632813 15.928125 -15.58015625 15.309375 -14.9453125 14.671875 C-13.98238281 13.72054687 -13.98238281 13.72054687 -13 12.75 C-12.35804688 12.1003125 -11.71609375 11.450625 -11.0546875 10.78125 C-10.43851563 10.16765625 -9.82234375 9.5540625 -9.1875 8.921875 C-8.62417969 8.36081055 -8.06085938 7.79974609 -7.48046875 7.22167969 C-6 6 -6 6 -4 6 C-3.71125 5.38125 -3.4225 4.7625 -3.125 4.125 C-2 2 -2 2 0 0 Z " fill="#FAC717" transform="translate(615,703)"/>
<path d="M0 0 C0.99 0.495 0.99 0.495 2 1 C0.96101563 1.7734375 -0.07796875 2.546875 -1.1484375 3.34375 C-12.72720643 11.97532718 -12.72720643 11.97532718 -24 21 C-24.75539063 21.62003906 -25.51078125 22.24007813 -26.2890625 22.87890625 C-32.31021333 27.99998814 -37.14644841 33.78138703 -42 40 C-42.61875 40.76441406 -43.2375 41.52882813 -43.875 42.31640625 C-58.91234586 61.07952307 -68.80342652 82.90997479 -75 106 C-75.33 106 -75.66 106 -76 106 C-75.47103293 99.52337883 -74.29739898 93.86574849 -72.125 87.75 C-71.82400391 86.89736572 -71.52300781 86.04473145 -71.21289062 85.16625977 C-58.86849651 51.65000753 -32.57578983 16.28789492 0 0 Z " fill="#296393" transform="translate(294,286)"/>
<path d="M0 0 C0.33 0 0.66 0 1 0 C0.41356456 7.1354141 -1.55688358 13.54212967 -3.75390625 20.3359375 C-4.13304672 21.52812897 -4.51218719 22.72032043 -4.90281677 23.94863892 C-5.91242687 27.11966981 -6.92785817 30.28870693 -7.94647217 33.45684814 C-9.34872105 37.82308966 -10.73974139 42.19292587 -12.13290405 46.56207275 C-12.9222538 49.03740809 -13.71247683 51.51246512 -14.50357056 53.98724365 C-17.49887447 63.37340166 -20.41864039 72.7812533 -23.28407288 82.20785522 C-25.40979128 89.17791734 -27.66539379 96.09713396 -30 103 C-31.81976085 96.45719571 -29.39541048 91.21821862 -27.09375 85.0859375 C-25.9849951 81.95766476 -25.06902836 78.82433999 -24.1875 75.625 C-22.52748245 69.65544669 -20.61941892 63.80315239 -18.625 57.9375 C-15.83732312 49.72580253 -13.33440736 41.46660129 -11.04150391 33.10327148 C-9.81115022 28.65435837 -8.43924481 24.34230638 -6.77197266 20.03833008 C-5.33124164 16.23419874 -4.08637194 12.36250555 -2.8125 8.5 C-2.53986328 7.67757813 -2.26722656 6.85515625 -1.98632812 6.0078125 C-1.32282708 4.00566899 -0.6612138 2.00290004 0 0 Z " fill="#FAC41A" transform="translate(549,445)"/>
<path d="M0 0 C0 3.72489587 -1.26156461 4.62177328 -3.78546143 7.18093872 C-4.34336365 7.7311972 -4.90126587 8.28145569 -5.47607422 8.84838867 C-6.05807587 9.43404099 -6.64007751 10.0196933 -7.23971558 10.62309265 C-9.17070157 12.56220269 -11.11236335 14.49022073 -13.0546875 16.41796875 C-14.39562203 17.75838493 -15.73603922 19.09931883 -17.07595825 20.44075012 C-19.88757828 23.25228035 -22.70430541 26.05856034 -25.52490234 28.86108398 C-29.14745131 32.46093477 -32.75881262 36.07176413 -36.36665154 39.68635082 C-39.13369666 42.4567307 -41.90569284 45.2221115 -44.6793251 47.98589516 C-46.01317127 49.31588133 -47.34565857 50.6472317 -48.67678452 51.97994041 C-50.53468657 53.83821162 -52.39892531 55.68987382 -54.26513672 57.53979492 C-54.81899048 58.0961261 -55.37284424 58.65245728 -55.94348145 59.22564697 C-59.77126071 63 -59.77126071 63 -62 63 C-60.33536962 58.71357676 -57.20924163 55.91382783 -54 52.75 C-53.18015625 51.91855469 -53.18015625 51.91855469 -52.34375 51.0703125 C-48.2533867 47 -48.2533867 47 -46 47 C-45.67 46.01 -45.34 45.02 -45 44 C-44.34 44 -43.68 44 -43 44 C-42.731875 43.360625 -42.46375 42.72125 -42.1875 42.0625 C-41 40 -41 40 -38 39 C-37.67 38.34 -37.34 37.68 -37 37 C-36 35 -36 35 -33 34 C-33 33.34 -33 32.68 -33 32 C-30.76064071 29.51182301 -28.84512945 27.41049145 -25.8125 25.9375 C-23.41706854 24.69848373 -23.10972262 23.42751824 -22 21 C-18.71989012 16.33215133 -14.55476563 12.42100362 -10 9 C-9.34 9 -8.68 9 -8 9 C-7.79375 8.443125 -7.5875 7.88625 -7.375 7.3125 C-5.44999226 4.07498698 -2.96149098 2.31768859 0 0 Z " fill="#FCCA19" transform="translate(681,638)"/>
<path d="M0 0 C0.66 0 1.32 0 2 0 C2 0.66 2 1.32 2 2 C5.63803847 3.12886963 9.08525483 3.15754817 12.87988281 3.20532227 C13.90488388 3.22017166 13.90488388 3.22017166 14.95059204 3.23532104 C17.20140154 3.26682044 19.45223211 3.29164752 21.703125 3.31640625 C23.26683083 3.33698577 24.83053122 3.35798251 26.39422607 3.37937927 C30.50410551 3.43449686 34.61403428 3.48395148 38.72399902 3.53222656 C42.92021054 3.58251702 47.11635065 3.63816366 51.3125 3.69335938 C59.54160624 3.80081475 67.77077233 3.90228759 76 4 C75.67 5.32 75.34 6.64 75 8 C75 7.34 75 6.68 75 6 C73.70120659 6.01332367 73.70120659 6.01332367 72.37617493 6.0269165 C64.21032723 6.10711395 56.04461209 6.16799056 47.87846088 6.20724869 C43.68027742 6.22811042 39.48241978 6.25640168 35.28442383 6.30175781 C31.23195894 6.34526685 27.17980715 6.36914775 23.12712669 6.37950897 C21.58215596 6.38689134 20.03720208 6.40130763 18.49236488 6.42292023 C16.32567139 6.45202308 14.16026617 6.45595337 11.9934082 6.45410156 C10.76096878 6.46298401 9.52852936 6.47186646 8.25874329 6.48101807 C4.39679248 5.91096147 2.71460468 4.75895958 0 2 C0 1.34 0 0.68 0 0 Z " fill="#276193" transform="translate(275,506)"/>
<path d="M0 0 C0.33 0 0.66 0 1 0 C1.37257238 6.85209206 0.07633577 12.57408706 -1.875 19.125 C-2.34147949 20.69628662 -2.34147949 20.69628662 -2.81738281 22.29931641 C-8.79826777 41.66585284 -17.89090354 61.36054307 -31 77 C-31.66 76.67 -32.32 76.34 -33 76 C-32.41992188 75.10539063 -31.83984375 74.21078125 -31.2421875 73.2890625 C-29.19153907 70.12059926 -27.15718193 66.94196575 -25.12792969 63.75976562 C-24.22346084 62.3486376 -23.30533969 60.94626407 -22.3828125 59.546875 C-16.88973707 50.9193328 -13.01200546 41.3791407 -9 32 C-8.57460938 31.01 -8.14921875 30.02 -7.7109375 29 C-4.04755667 19.70752179 -2.19286203 9.7203347 0 0 Z " fill="#FCC81A" transform="translate(807,461)"/>
<path d="M0 0 C0.33 0 0.66 0 1 0 C1.90326157 8.1292261 2.13377477 16.14948677 2.09765625 24.32421875 C2.0962413 25.55163284 2.09482635 26.77904694 2.09336853 28.0436554 C2.08781636 31.92496279 2.07527295 35.80621034 2.0625 39.6875 C2.05747881 42.33528562 2.05291699 44.98307215 2.04882812 47.63085938 C2.03786264 54.08725966 2.02117285 60.54362555 2 67 C3.485 66.505 3.485 66.505 5 66 C4.54619105 67.89692143 4.08675008 69.79249595 3.625 71.6875 C3.36976563 72.74324219 3.11453125 73.79898438 2.8515625 74.88671875 C2.08094511 77.70406766 1.14501457 80.31668325 0 83 C-0.33 83 -0.66 83 -1 83 C-0.67 55.61 -0.34 28.22 0 0 Z " fill="#FAC91D" transform="translate(513,483)"/>
<path d="M0 0 C0 3.80824424 -1.23854771 5.27289785 -3.3125 8.4375 C-3.92738281 9.38496094 -4.54226563 10.33242188 -5.17578125 11.30859375 C-7 14 -7 14 -8.59272766 15.74395752 C-10.533565 18.8553748 -10.3605709 21.13571635 -10.34057617 24.78808594 C-10.34101425 25.46166641 -10.34145233 26.13524689 -10.34190369 26.82923889 C-10.33981946 29.04791604 -10.31650699 31.26583043 -10.29296875 33.484375 C-10.28737146 35.02565091 -10.28310199 36.56693217 -10.28010559 38.10821533 C-10.26866718 42.15910656 -10.23920889 46.20967361 -10.20599365 50.26043701 C-10.17527098 54.39623632 -10.16159557 58.53208815 -10.14648438 62.66796875 C-10.114338 70.77879438 -10.06315407 78.88935683 -10 87 C-10.99 87.495 -10.99 87.495 -12 88 C-12.36474487 78.98586305 -12.67211958 69.97201975 -12.90927315 60.953619 C-13.02117561 56.76443107 -13.15170634 52.57767148 -13.32714844 48.390625 C-13.49620914 44.33858669 -13.6132803 40.28787882 -13.69659042 36.23320389 C-13.73684837 34.69792602 -13.7948527 33.16299277 -13.87210464 31.62913132 C-14.47926266 19.20582148 -11.23286702 12.26475272 -3 3 C-2.0168607 1.98341891 -1.02661372 0.97265836 0 0 Z " fill="#FACB1E" transform="translate(525,316)"/>
<path d="M0 0 C5.67970601 1.22503463 7.9588967 2.67695926 12 7 C13.50583354 8.22697548 15.02871895 9.43314466 16.5625 10.625 C28.61984018 20.16289597 38.69013906 30.77550174 48 43 C47.505 43.99 47.505 43.99 47 45 C46.1646875 43.9171875 46.1646875 43.9171875 45.3125 42.8125 C43.0270024 39.92913577 43.0270024 39.92913577 40.25 37.3125 C38 35 38 35 38 33 C37.34 33 36.68 33 36 33 C36 32.34 36 31.68 36 31 C35.01 30.67 34.02 30.34 33 30 C31.38671875 28.328125 31.38671875 28.328125 29.6875 26.25 C27.4577346 23.60274661 25.27699079 21.27343584 22.5625 19.125 C21.716875 18.42375 20.87125 17.7225 20 17 C20 16.34 20 15.68 20 15 C19.41500732 14.72220703 18.83001465 14.44441406 18.22729492 14.15820312 C14.66317205 12.3048436 11.54112776 9.87769542 8.3125 7.5 C7.62349609 7.00113281 6.93449219 6.50226563 6.22460938 5.98828125 C5.56912109 5.50746094 4.91363281 5.02664063 4.23828125 4.53125 C3.64055908 4.09361328 3.04283691 3.65597656 2.42700195 3.20507812 C1 2 1 2 0 0 Z " fill="#FCC91C" transform="translate(732,289)"/>
<path d="M0 0 C7.24965244 -0.04633306 14.49927297 -0.08187408 21.74904346 -0.10362434 C25.11538229 -0.1140632 28.48161985 -0.12822409 31.84790039 -0.15087891 C35.71763815 -0.17507811 39.58723176 -0.18647192 43.45703125 -0.1953125 C44.66647903 -0.20563507 45.87592682 -0.21595764 47.12202454 -0.22659302 C48.80342781 -0.22681961 48.80342781 -0.22681961 50.51879883 -0.22705078 C51.50697098 -0.231492 52.49514313 -0.23593323 53.51325989 -0.24050903 C56 0 56 0 59 2 C39.53 2.33 20.06 2.66 0 3 C0 2.01 0 1.02 0 0 Z " fill="#FCCA1B" transform="translate(641,510)"/>
<path d="M0 0 C0 0.66 0 1.32 0 2 C-0.93972656 2.18175781 -0.93972656 2.18175781 -1.8984375 2.3671875 C-2.71570313 2.53476562 -3.53296875 2.70234375 -4.375 2.875 C-5.18710937 3.03742188 -5.99921875 3.19984375 -6.8359375 3.3671875 C-9.18673923 3.86658932 -9.18673923 3.86658932 -11 6 C-11.28127623 8.33706139 -11.28127623 8.33706139 -11.1875 10.9375 C-11.18105469 11.81277344 -11.17460938 12.68804687 -11.16796875 13.58984375 C-11.09069243 16.1437675 -11.09069243 16.1437675 -10 19 C-3.87104013 20.21526674 -3.87104013 20.21526674 1.9375 18.5 C2.618125 18.005 3.29875 17.51 4 17 C4.66 17.33 5.32 17.66 6 18 C3.53145023 21.18854345 2.1161387 21.97190193 -1.875 22.9375 C-6.00372317 23.2450399 -8.58626505 22.46106473 -12 20 C-14.6859484 15.9710774 -15.61443138 12.81304584 -15 8 C-11.8896838 0.96086335 -7.3746593 -0.43380349 0 0 Z " fill="#FDCB1F" transform="translate(655,335)"/>
<path d="M0 0 C4.71292662 4.17601093 7.47057767 8.85852535 10.4375 14.375 C10.91687012 15.25824951 11.39624023 16.14149902 11.89013672 17.05151367 C16.98060441 26.5920465 21.76129507 36.1406868 23 47 C19.98662059 43.52302376 18.62058315 39.6519482 17.125 35.375 C15.0589935 29.63841035 12.78187807 24.19908196 9.8828125 18.8203125 C9 17 9 17 9 15 C8.34 15 7.68 15 7 15 C6.01515892 13.25318707 5.03733813 11.5024149 4.0625 9.75 C3.51722656 8.77546875 2.97195313 7.8009375 2.41015625 6.796875 C1.23389165 4.46389591 0.47898309 2.54649238 0 0 Z " fill="#FCC91B" transform="translate(780,334)"/>
<path d="M0 0 C0 0.66 0 1.32 0 2 C-0.66 2 -1.32 2 -2 2 C-2.21914063 2.54366211 -2.43828125 3.08732422 -2.6640625 3.64746094 C-4.44104915 6.77667207 -6.84104975 9.12685399 -9.375 11.640625 C-9.90013184 12.16767029 -10.42526367 12.69471558 -10.96630859 13.23773193 C-12.07338883 14.34616928 -13.1829833 15.45210046 -14.29492188 16.55566406 C-16.00106975 18.25106301 -17.69624047 19.9569161 -19.390625 21.6640625 C-20.46810892 22.74022558 -21.54621267 23.81576851 -22.625 24.890625 C-23.13337402 25.40304749 -23.64174805 25.91546997 -24.16552734 26.44342041 C-27.77005909 30 -27.77005909 30 -30 30 C-28.55922954 26.63820226 -26.75249979 24.40843732 -24 22 C-23.34 22 -22.68 22 -22 22 C-21.566875 21.1028125 -21.566875 21.1028125 -21.125 20.1875 C-20 18 -20 18 -18 15 C-17.01 15 -16.02 15 -15 15 C-14.773125 14.443125 -14.54625 13.88625 -14.3125 13.3125 C-12.62254379 10.33495811 -10.4763104 8.36375084 -8 6 C-7.47535156 5.45472656 -6.95070313 4.90945313 -6.41015625 4.34765625 C-2.22617647 0 -2.22617647 0 0 0 Z " fill="#FCCB1A" transform="translate(713,607)"/>
<path d="M0 0 C2.98814913 4.4822237 4.66702097 9.43547544 6.625 14.4375 C7.04523437 15.48744141 7.46546875 16.53738281 7.8984375 17.61914062 C8.29546875 18.63041016 8.6925 19.64167969 9.1015625 20.68359375 C9.46588379 21.60712646 9.83020508 22.53065918 10.20556641 23.48217773 C11 26 11 26 11 30 C10.34 30 9.68 30 9 30 C8.75765625 29.23816406 8.5153125 28.47632813 8.265625 27.69140625 C5.46690224 17.1519484 5.46690224 17.1519484 0 8 C-1.32 11.3 -2.64 14.6 -4 18 C-4.33 18 -4.66 18 -5 18 C-4.51030705 11.38914524 -2.66557258 6.05022986 0 0 Z " fill="#FECB1B" transform="translate(568,458)"/>
<path d="M0 0 C1.875 1.5 1.875 1.5 3 3 C1 5 1 5 -2.125 5.125 C-3.07375 5.08375 -4.0225 5.0425 -5 5 C-5 4.34 -5 3.68 -5 3 C-8.8356909 4.59820454 -10.44896716 6.38562176 -12.125 10.0625 C-14.09625189 14.9345372 -15.60467354 19.93665626 -17 25 C-17.66 25 -18.32 25 -19 25 C-18.45916412 17.69871562 -16.2675573 11.5351146 -13 5 C-12.34 5 -11.68 5 -11 5 C-10.67 4.01 -10.34 3.02 -10 2 C-6.77232766 -0.27132498 -3.86649308 -0.41132905 0 0 Z " fill="#FCC81D" transform="translate(569,419)"/>
<path d="M0 0 C1.32 0.66 2.64 1.32 4 2 C2.64068359 2.74443359 2.64068359 2.74443359 1.25390625 3.50390625 C-5.97644996 7.51668437 -12.60802909 11.71793199 -19 17 C-22.73793103 20 -22.73793103 20 -25 20 C-25 20.66 -25 21.32 -25 22 C-26.98 22.99 -26.98 22.99 -29 24 C-29 21 -29 21 -27.61401367 19.5612793 C-26.65072144 18.82518433 -26.65072144 18.82518433 -25.66796875 18.07421875 C-24.95640625 17.52741455 -24.24484375 16.98061035 -23.51171875 16.41723633 C-22.74472656 15.84642334 -21.97773437 15.27561035 -21.1875 14.6875 C-20.41664063 14.10444092 -19.64578125 13.52138184 -18.8515625 12.9206543 C-13.73683999 9.11503178 -8.64538915 5.84256129 -2.90625 3.05078125 C-0.83586326 2.14457159 -0.83586326 2.14457159 0 0 Z " fill="#FBC91D" transform="translate(568,280)"/>
<path d="M0 0 C1.82560937 2.73841406 2.49824222 4.34837081 3.2890625 7.44921875 C3.50820313 8.29677734 3.72734375 9.14433594 3.953125 10.01757812 C4.17484375 10.89865234 4.3965625 11.77972656 4.625 12.6875 C4.85445313 13.58017578 5.08390625 14.47285156 5.3203125 15.39257812 C5.88533134 17.59379736 6.44501493 19.79623357 7 22 C8.32 21.67 9.64 21.34 11 21 C10.88541307 22.43836751 10.75790884 23.87570966 10.625 25.3125 C10.55539062 26.11300781 10.48578125 26.91351562 10.4140625 27.73828125 C10 30 10 30 8 33 C5.88825892 26.99820956 4.05936752 20.92870517 2.3125 14.8125 C2.08602783 14.0405127 1.85955566 13.26852539 1.6262207 12.47314453 C0.4225382 8.19737684 -0.26494861 4.48980483 0 0 Z " fill="#326993" transform="translate(498,553)"/>
<path d="M0 0 C0.33 0 0.66 0 1 0 C0.43053112 7.84990951 -1.40432276 15.28060826 -3.38354492 22.86865234 C-3.94283265 25.02051743 -4.48649662 27.17595547 -5.02929688 29.33203125 C-5.3818849 30.70076012 -5.73536734 32.06925897 -6.08984375 33.4375 C-6.40816162 34.67371094 -6.72647949 35.90992188 -7.05444336 37.18359375 C-8 40 -8 40 -10 41 C-9.41862729 35.69056965 -8.53510739 30.689524 -7.1875 25.5078125 C-7.01371826 24.83579803 -6.83993652 24.16378357 -6.66088867 23.47140503 C-6.29680239 22.06755979 -5.93032531 20.66433254 -5.56152344 19.26171875 C-4.99627165 17.11081282 -4.43896899 14.95796121 -3.8828125 12.8046875 C-1.15115458 2.30230916 -1.15115458 2.30230916 0 0 Z " fill="#266193" transform="translate(405,418)"/>
<path d="M0 0 C0.33 0 0.66 0 1 0 C1.98218092 7.08942621 2.01416954 13.85801942 1.6875 21 C1.65205078 22.02867187 1.61660156 23.05734375 1.58007812 24.1171875 C1.31601282 30.31286891 0.53382081 35.98992664 -1 42 C-1.33 42 -1.66 42 -2 42 C-2.02749868 40.16675453 -2.04661673 38.3333829 -2.0625 36.5 C-2.07410156 35.4790625 -2.08570313 34.458125 -2.09765625 33.40625 C-2.00897914 30.3131925 -1.66982907 27.33850159 -1.25610352 24.27539062 C-0.74122127 19.70084106 -0.62152384 15.09757923 -0.4375 10.5 C-0.39431641 9.48679687 -0.35113281 8.47359375 -0.30664062 7.4296875 C-0.20150808 4.9532321 -0.09936163 2.47669251 0 0 Z " fill="#FDC919" transform="translate(810,418)"/>
<path d="M0 0 C-1.32900341 2.95499307 -2.77299793 5.01274778 -5.08203125 7.27734375 C-5.68466797 7.87353516 -6.28730469 8.46972656 -6.90820312 9.08398438 C-7.53662109 9.69564453 -8.16503906 10.30730469 -8.8125 10.9375 C-9.42931641 11.54529297 -10.04613281 12.15308594 -10.68164062 12.77929688 C-11.89158781 13.97124272 -13.10369368 15.16100189 -14.31811523 16.34838867 C-15.81549881 17.81881978 -17.29572595 19.30667575 -18.7734375 20.796875 C-21.05771327 23.05710576 -23.45719435 25.03840707 -26 27 C-24.3812035 22.84873045 -21.33386628 20.145816 -18.1875 17.125 C-14.18556239 13.25662521 -10.5193487 9.31481793 -7 5 C-2.32608696 0 -2.32608696 0 0 0 Z " fill="#FDCB18" transform="translate(740,579)"/>
<path d="M0 0 C0.66 0 1.32 0 2 0 C6.39453125 11.71875 6.39453125 11.71875 7.18603516 13.8515625 C7.73938797 15.31212183 8.31280691 16.76520243 8.90380859 18.2109375 C11.10532407 23.68402778 11.10532407 23.68402778 10 27 C7.13650063 21.71353963 4.87501058 16.30206801 2.75 10.6875 C2.34467041 9.62885742 2.34467041 9.62885742 1.93115234 8.54882812 C0.81875899 5.56432326 0 3.21148876 0 0 Z " fill="#FDC91A" transform="translate(593,469)"/>
<path d="M0 0 C1.30712019 3.92136056 0.37258347 5.08813711 -1 9 C-2.04920344 12.98799172 -3.02735768 16.99271364 -4 21 C-4.66 21 -5.32 21 -6 21 C-6.33 21.66 -6.66 22.32 -7 23 C-6.50066223 15.50993345 -5.51960605 5.51960605 0 0 Z " fill="#FBC81A" transform="translate(537,553)"/>
<path d="M0 0 C0 3.99833488 -1.35814212 4.81158018 -4.0625 7.6875 C-7.6830555 11.5764563 -11.18220414 15.52528439 -14.58984375 19.6015625 C-16 21 -16 21 -18 21 C-17.34 19.68 -16.68 18.36 -16 17 C-15.34 17 -14.68 17 -14 17 C-13.78472656 16.46761719 -13.56945312 15.93523438 -13.34765625 15.38671875 C-11.49919195 12.11306168 -8.99900822 9.53143766 -6.4375 6.8125 C-5.93025391 6.26658203 -5.42300781 5.72066406 -4.90039062 5.15820312 C-1.44294085 1.44294085 -1.44294085 1.44294085 0 0 Z " fill="#FCCB1A" transform="translate(759,557)"/>
<path d="M0 0 C1 2 1 2 0.00390625 5.4765625 C-0.46900047 6.86197936 -0.94981644 8.24471547 -1.4375 9.625 C-1.68048828 10.33140625 -1.92347656 11.0378125 -2.17382812 11.765625 C-2.77587205 13.51273287 -3.38708017 15.25667786 -4 17 C-4.33 17 -4.66 17 -5 17 C-5 12.38 -5 7.76 -5 3 C-4.34 3 -3.68 3 -3 3 C-2.67 2.34 -2.34 1.68 -2 1 C-1.34 0.67 -0.68 0.34 0 0 Z " fill="#EBCB22" transform="translate(517,549)"/>
<path d="M0 0 C0 5.83999448 -4.85162284 11.5059681 -8.578125 15.83203125 C-9.67882757 16.92957088 -10.83239411 17.97392209 -12 19 C-12 14.93039344 -9.96642711 12.68696473 -7.6875 9.5 C-7.28337891 8.91863281 -6.87925781 8.33726562 -6.46289062 7.73828125 C-4.4932441 4.93914131 -2.54208576 2.30350813 0 0 Z " fill="#F0C522" transform="translate(525,316)"/>
<path d="M0 0 C3.44514968 2.73128984 4.65483751 6.52643058 6.1875 10.5 C6.46013672 11.17675781 6.73277344 11.85351562 7.01367188 12.55078125 C8.17796141 15.50965239 9 17.79271544 9 21 C8.34 21 7.68 21 7 21 C5.82504857 18.06574629 4.66149148 15.12710487 3.5 12.1875 C3.16613281 11.35412109 2.83226562 10.52074219 2.48828125 9.66210938 C2.17246094 8.85966797 1.85664062 8.05722656 1.53125 7.23046875 C1.23798828 6.49207764 0.94472656 5.75368652 0.64257812 4.99291992 C0 3 0 3 0 0 Z " fill="#FDC91A" transform="translate(584,446)"/>
<path d="M0 0 C0.33 0.66 0.66 1.32 1 2 C0.36191406 2.90363281 -0.27617188 3.80726563 -0.93359375 4.73828125 C-1.7684217 5.9295526 -2.60304654 7.1209663 -3.4375 8.3125 C-3.85837891 8.90740234 -4.27925781 9.50230469 -4.71289062 10.11523438 C-6.53844596 12.72942961 -7.98587465 14.95762396 -9 18 C-9.66 18 -10.32 18 -11 18 C-11.33 16.02 -11.66 14.04 -12 12 C-11.41605469 11.938125 -10.83210937 11.87625 -10.23046875 11.8125 C-7.0662531 10.65986102 -6.13623386 8.78505127 -4.3125 6 C-3.40951172 4.63875 -3.40951172 4.63875 -2.48828125 3.25 C-1.99714844 2.5075 -1.50601563 1.765 -1 1 C-0.67 0.67 -0.34 0.34 0 0 Z " fill="#FDC81A" transform="translate(623,501)"/>
<path d="M0 0 C0.66 0 1.32 0 2 0 C0.51731644 4.35135393 -1.7300545 7.59870821 -4.5 11.25 C-5.10521484 12.06210937 -5.10521484 12.06210937 -5.72265625 12.890625 C-8.73522384 16.86761192 -8.73522384 16.86761192 -11 18 C-9.4785114 13.60918236 -7.14060361 9.97124031 -4.5 6.1875 C-3.89478516 5.2912793 -3.89478516 5.2912793 -3.27734375 4.37695312 C-2.23960218 2.87856389 -1.12524203 1.43384386 0 0 Z " fill="#FDCA19" transform="translate(638,514)"/>
<path d="M0 0 C0.33 0 0.66 0 1 0 C0.48517081 5.852795 -0.45357192 11.3297637 -2 17 C-2.66 17 -3.32 17 -4 17 C-4.33 14.69 -4.66 12.38 -5 10 C-4.34 9.67 -3.68 9.34 -3 9 C-2.09274566 6.88672575 -2.09274566 6.88672575 -1.375 4.4375 C-1.11460937 3.61121094 -0.85421875 2.78492188 -0.5859375 1.93359375 C-0.39257812 1.29550781 -0.19921875 0.65742187 0 0 Z " fill="#2A6494" transform="translate(380,512)"/>
<path d="M0 0 C2 1 2 1 2.6328125 2.6796875 C4.01479115 8.84375098 4.21206472 14.69696525 4 21 C3.67 21 3.34 21 3 21 C2.49702428 18.06298109 1.99750127 15.12544669 1.5 12.1875 C1.35691406 11.35412109 1.21382812 10.52074219 1.06640625 9.66210938 C0.86337891 8.45844727 0.86337891 8.45844727 0.65625 7.23046875 C0.53056641 6.49207764 0.40488281 5.75368652 0.27539062 4.99291992 C0 3 0 3 0 0 Z " fill="#FDCB19" transform="translate(805,389)"/>
<path d="M0 0 C5.44039142 0.84167491 8.62883839 4.9234191 12 9 C13.5 12.5 13.5 12.5 14 15 C12.33333333 13.33333333 10.66666667 11.66666667 9 10 C8.154375 9.175 7.30875 8.35 6.4375 7.5 C4.10870056 5.11148775 2.03621503 2.639538 0 0 Z " fill="#FECB19" transform="translate(717,328)"/>
<path d="M0 0 C2 1 2 1 2.8515625 3.29296875 C5.41470311 12.88532831 5.41470311 12.88532831 5 18 C2.59881473 15.59881473 2.24779139 13.94503958 1.375 10.6875 C1.11460937 9.74261719 0.85421875 8.79773438 0.5859375 7.82421875 C0.02520352 5.12148098 -0.1101876 2.74968152 0 0 Z " fill="#266293" transform="translate(440,418)"/>
<path d="M0 0 C2.93752254 0.30388164 3.84080893 0.80669656 5.75 3.125 C7.2577334 6.59278683 7.22019353 9.25670998 7 13 C6.01 13.33 5.02 13.66 4 14 C3.96261719 13.30132812 3.92523437 12.60265625 3.88671875 11.8828125 C3.82097656 10.97273438 3.75523437 10.06265625 3.6875 9.125 C3.62949219 8.22007812 3.57148437 7.31515625 3.51171875 6.3828125 C3.2117961 3.63778399 3.2117961 3.63778399 0 2 C0 1.34 0 0.68 0 0 Z " fill="#FDCC1F" transform="translate(656,337)"/>
<path d="M0 0 C0.66 0 1.32 0 2 0 C1.54705135 1.75140143 1.08741252 3.50107344 0.625 5.25 C0.36976563 6.22453125 0.11453125 7.1990625 -0.1484375 8.203125 C-0.89598509 10.65837303 -1.77123817 12.75617405 -3 15 C-3.33 15 -3.66 15 -4 15 C-3.50341703 9.33895411 -2.45489316 5.12325529 0 0 Z " fill="#FDCA1A" transform="translate(557,490)"/>
<path d="M0 0 C1.57156655 3.1431331 0.11705576 5.365464 -0.9375 8.625 C-1.31777344 9.81351563 -1.69804688 11.00203125 -2.08984375 12.2265625 C-2.39019531 13.14179687 -2.69054687 14.05703125 -3 15 C-3.33 15 -3.66 15 -4 15 C-4.20705455 9.92716361 -3.72487541 5.79132057 -2 1 C-1.34 0.67 -0.68 0.34 0 0 Z " fill="#F7C81A" transform="translate(520,607)"/>
<path d="M0 0 C4.04964951 1.34988317 4.74190559 3.44179062 7 7 C8.31543279 8.68083079 9.64316249 10.3524116 11 12 C7.52660947 11.43491477 6.04993024 10.37356664 3.8125 7.6875 C3.04873047 6.79611328 3.04873047 6.79611328 2.26953125 5.88671875 C0.9388234 3.90908216 0.42672613 2.32899925 0 0 Z " fill="#FDCA19" transform="translate(687,412)"/>
<path d="M0 0 C-2.3129482 2.3129482 -3.47904875 2.49580975 -6.625 3.125 C-7.44226563 3.29257812 -8.25953125 3.46015625 -9.1015625 3.6328125 C-10.04128906 3.81457031 -10.04128906 3.81457031 -11 4 C-11 3.01 -11 2.02 -11 1 C-6.92630576 -1.03684712 -4.41062136 -1.0257259 0 0 Z " fill="#E6BD20" transform="translate(523,793)"/>
<path d="M0 0 C3.33193619 2.69728168 4.60371996 6.02060187 6 10 C5.578125 12.22265625 5.578125 12.22265625 5 14 C2.46690767 9.35796103 0.53484401 5.34844008 0 0 Z " fill="#FDC818" transform="translate(578,431)"/>
<path d="M0 0 C0.33 0 0.66 0 1 0 C0.44854729 5.23880078 -0.42922093 9.97350697 -2 15 C-2.33 15 -2.66 15 -3 15 C-3.36263859 9.1977825 -2.25684543 5.36000789 0 0 Z " fill="#286394" transform="translate(398,527)"/>
<path d="M0 0 C0.66 0 1.32 0 2 0 C1.125 7.625 1.125 7.625 0 11 C-0.66 11 -1.32 11 -2 11 C-1.125 3.375 -1.125 3.375 0 0 Z " fill="#F9C71A" transform="translate(527,581)"/>
<path d="M0 0 C0.33 0 0.66 0 1 0 C1.38281159 5.23175837 0.21854707 8.37802694 -2 13 C-2.33 13 -2.66 13 -3 13 C-2.88490339 11.58249437 -2.75746342 10.16598831 -2.625 8.75 C-2.55539062 7.96109375 -2.48578125 7.1721875 -2.4140625 6.359375 C-1.98492887 3.914123 -1.21399362 2.15163097 0 0 Z " fill="#FDC817" transform="translate(541,539)"/>
<path d="M0 0 C0.66 0.33 1.32 0.66 2 1 C0.87327121 4.38018638 -0.48086363 5.5572011 -3 8 C-3.99 9.485 -3.99 9.485 -5 11 C-5.66 11 -6.32 11 -7 11 C-5.5140084 6.40693504 -3.14985318 3.56430755 0 0 Z " fill="#FECA1C" transform="translate(625,533)"/>
<path d="M0 0 C0 0.66 0 1.32 0 2 C-1.59915881 2.69906942 -3.20455045 3.38389468 -4.8125 4.0625 C-5.70582031 4.44535156 -6.59914063 4.82820313 -7.51953125 5.22265625 C-10 6 -10 6 -13 5 C-4.61290323 0 -4.61290323 0 0 0 Z " fill="#FECB1B" transform="translate(653,319)"/>
<path d="M0 0 C0.33 0 0.66 0 1 0 C1.1953125 6.0546875 1.1953125 6.0546875 1 8 C0.34 8.66 -0.32 9.32 -1 10 C-1.69748583 11.31747324 -2.36959957 12.64914193 -3 14 C-4.07010304 11.23556715 -4.16283213 9.46148633 -3.17578125 6.6640625 C-2.16488321 4.41525773 -1.11596524 2.19840363 0 0 Z " fill="#E4C129" transform="translate(515,618)"/>
<path d="M0 0 C3.10011632 2.53645881 4.0575938 5.15184135 5 9 C4.546875 11.19140625 4.546875 11.19140625 4 13 C3.32694982 11.39850114 2.66177773 9.79368971 2 8.1875 C1.62875 7.29417969 1.2575 6.40085937 0.875 5.48046875 C0 3 0 3 0 0 Z " fill="#FECA1B" transform="translate(585,505)"/>
<path d="M0 0 C1.40907283 2.81814566 0.50872691 4.17277204 -0.4375 7.125 C-0.72496094 8.03507813 -1.01242187 8.94515625 -1.30859375 9.8828125 C-1.53675781 10.58148437 -1.76492188 11.28015625 -2 12 C-2.33 12 -2.66 12 -3 12 C-3 8.37 -3 4.74 -3 1 C-2.01 0.67 -1.02 0.34 0 0 Z " fill="#E9BD28" transform="translate(517,549)"/>
<path d="M0 0 C-3.20380017 2.13586678 -4.01939967 2.23132175 -7.6875 2.125 C-8.49574219 2.10695313 -9.30398438 2.08890625 -10.13671875 2.0703125 C-11.05904297 2.03550781 -11.05904297 2.03550781 -12 2 C-12.33 1.34 -12.66 0.68 -13 0 C-8.37078475 -1.0161692 -4.65537393 -0.83796731 0 0 Z " fill="#FECB19" transform="translate(718,427)"/>
<path d="M0 0 C0.66 0 1.32 0 2 0 C1.71890887 1.64767247 1.42481474 3.29313145 1.125 4.9375 C0.96257813 5.85402344 0.80015625 6.77054687 0.6328125 7.71484375 C0.42398438 8.46894531 0.21515625 9.22304688 0 10 C-0.99 10.495 -0.99 10.495 -2 11 C-1.125 3.375 -1.125 3.375 0 0 Z " fill="#FECA1B" transform="translate(561,477)"/>
<path d="M0 0 C0.66 0 1.32 0 2 0 C2 0.66 2 1.32 2 2 C4.97 2.99 7.94 3.98 11 5 C11 5.33 11 5.66 11 6 C7.14521782 6.35858439 5.42240542 6.2754818 2.125 4.125 C1.42375 3.42375 0.7225 2.7225 0 2 C0 1.34 0 0.68 0 0 Z " fill="#285F91" transform="translate(275,506)"/>
<path d="M0 0 C4.23830976 2.82553984 3.97715348 5.12180888 5 10 C1.32769295 6.92000054 0.43197635 4.7517398 0 0 Z " fill="#FDC918" transform="translate(606,502)"/>
<path d="M0 0 C-0.33 0.66 -0.66 1.32 -1 2 C-3.28515625 2.6328125 -3.28515625 2.6328125 -6.0625 3.125 C-6.98160156 3.29257812 -7.90070312 3.46015625 -8.84765625 3.6328125 C-9.91306641 3.81457031 -9.91306641 3.81457031 -11 4 C-10 2 -10 2 -7.75 0.875 C-4.98386705 -0.00513321 -2.87951649 -0.1645438 0 0 Z " fill="#FDC81A" transform="translate(596,271)"/>
<path d="M0 0 C0.66 0 1.32 0 2 0 C1.50168276 3.68754757 0.89932357 5.60490662 -2 8 C-1.125 1.125 -1.125 1.125 0 0 Z " fill="#FDC918" transform="translate(544,530)"/>
<path d="M0 0 C2.78388975 1.70625501 3.85384206 2.47626739 4.75 5.6875 C4.8325 6.450625 4.915 7.21375 5 8 C4.34 8 3.68 8 3 8 C0.95830515 5.09451118 0 3.59857954 0 0 Z " fill="#FCC91B" transform="translate(573,422)"/>
<path d="M0 0 C2.64 0 5.28 0 8 0 C8 0.33 8 0.66 8 1 C5.36 1 2.72 1 0 1 C0 0.67 0 0.34 0 0 Z " fill="#FED32B" transform="translate(667,508)"/>
<path d="M0 0 C1.98 0 3.96 0 6 0 C6 0.33 6 0.66 6 1 C4.02 1 2.04 1 0 1 C0 0.67 0 0.34 0 0 Z " fill="#FED42C" transform="translate(696,493)"/>
<path d="M0 0 C1.65 0 3.3 0 5 0 C5 0.33 5 0.66 5 1 C3.35 1 1.7 1 0 1 C0 0.67 0 0.34 0 0 Z " fill="#2F74AE" transform="translate(321,508)"/>
<path d="M0 0 C0 3 0 3 0 3 Z " fill="#2E70A4" transform="translate(369,668)"/>
<path d="M0 0 C4 1 4 1 4 1 Z " fill="#FED32B" transform="translate(727,508)"/>
<path d="M0 0 C4 1 4 1 4 1 Z " fill="#FED22C" transform="translate(698,508)"/>
<path d="M0 0 C4 1 4 1 4 1 Z " fill="#FED32B" transform="translate(690,508)"/>
<path d="M0 0 C4 1 4 1 4 1 Z " fill="#FED42C" transform="translate(679,508)"/>
<path d="" fill="#2E70A5" transform="translate(0,0)"/>
<path d="M0 0 C0.66 0.66 1.32 1.32 2 2 C1.34 2 0.68 2 0 2 C0 1.34 0 0.68 0 0 Z " fill="#2C6FA5" transform="translate(344,642)"/>
<path d="" fill="#3E79A2" transform="translate(0,0)"/>
<path d="M0 0 C0.66 0.66 1.32 1.32 2 2 C1.34 2 0.68 2 0 2 C0 1.34 0 0.68 0 0 Z " fill="#3777A3" transform="translate(482,568)"/>
<path d="" fill="#3477A8" transform="translate(0,0)"/>
<path d="M0 0 C3 1 3 1 3 1 Z " fill="#FED42C" transform="translate(663,508)"/>
<path d="" fill="#FFD52E" transform="translate(0,0)"/>
<path d="" fill="#FCD12F" transform="translate(0,0)"/>
<path d="M0 0 C3 1 3 1 3 1 Z " fill="#FED32C" transform="translate(687,493)"/>
<path d="M0 0 C0.33 0.66 0.66 1.32 1 2 C0.34 1.67 -0.32 1.34 -1 1 C-0.67 0.67 -0.34 0.34 0 0 Z " fill="#FED12D" transform="translate(593,475)"/>
<path d="" fill="#2F6EA3" transform="translate(0,0)"/>
<path d="M0 0 C0.66 0.66 1.32 1.32 2 2 C1.34 2 0.68 2 0 2 C0 1.34 0 0.68 0 0 Z " fill="#3171A1" transform="translate(438,272)"/>
<path d="M0 0 C3 1 3 1 3 1 Z " fill="#2C72A7" transform="translate(345,264)"/>
<path d="M0 0 C2 1 2 1 2 1 Z " fill="#B2A043" transform="translate(513,797)"/>
<path d="M0 0 C2 1 2 1 2 1 Z " fill="#336F9E" transform="translate(467,766)"/>
<path d="" fill="#8E976B" transform="translate(0,0)"/>
<path d="" fill="#477C99" transform="translate(0,0)"/>
<path d="" fill="#427B9D" transform="translate(0,0)"/>
<path d="" fill="#3777A7" transform="translate(0,0)"/>
<path d="" fill="#3777A8" transform="translate(0,0)"/>
<path d="" fill="#2B6EA4" transform="translate(0,0)"/>
<path d="" fill="#FACD32" transform="translate(0,0)"/>
<path d="" fill="#2C74AC" transform="translate(0,0)"/>
<path d="M0 0 C2 1 2 1 2 1 Z " fill="#2C6DA1" transform="translate(229,511)"/>
<path d="" fill="#3077AC" transform="translate(0,0)"/>
<path d="M0 0 C2 1 2 1 2 1 Z " fill="#FED22C" transform="translate(713,508)"/>
<path d="M0 0 C2 1 2 1 2 1 Z " fill="#FED32D" transform="translate(708,508)"/>
<path d="M0 0 C2 1 2 1 2 1 Z " fill="#FDD32B" transform="translate(705,508)"/>
<path d="M0 0 C2 1 2 1 2 1 Z " fill="#FFD42C" transform="translate(695,508)"/>
<path d="M0 0 C2 1 2 1 2 1 Z " fill="#FFD42C" transform="translate(687,508)"/>
<path d="M0 0 C2 1 2 1 2 1 Z " fill="#FED42C" transform="translate(684,508)"/>
<path d="M0 0 C2 1 2 1 2 1 Z " fill="#FED42B" transform="translate(676,508)"/>
<path d="M0 0 C2 1 2 1 2 1 Z " fill="#FED42D" transform="translate(660,508)"/>
<path d="M0 0 C2 1 2 1 2 1 Z " fill="#FDD42D" transform="translate(657,508)"/>
<path d="M0 0 C2 1 2 1 2 1 Z " fill="#FED22C" transform="translate(652,508)"/>
<path d="M0 0 C2 1 2 1 2 1 Z " fill="#FED32C" transform="translate(646,508)"/>
<path d="M0 0 C2 1 2 1 2 1 Z " fill="#2D75AE" transform="translate(340,508)"/>
<path d="M0 0 C2 1 2 1 2 1 Z " fill="#2F75B0" transform="translate(332,508)"/>
<path d="M0 0 C2 1 2 1 2 1 Z " fill="#2F76AE" transform="translate(316,508)"/>
<path d="M0 0 C2 1 2 1 2 1 Z " fill="#2D74AF" transform="translate(308,508)"/>
<path d="M0 0 C2 1 2 1 2 1 Z " fill="#2E74AE" transform="translate(300,508)"/>
<path d="M0 0 C2 1 2 1 2 1 Z " fill="#2E73AE" transform="translate(292,508)"/>
<path d="" fill="#2E74A9" transform="translate(0,0)"/>
<path d="M0 0 C2 1 2 1 2 1 Z " fill="#FED32E" transform="translate(704,493)"/>
<path d="M0 0 C2 1 2 1 2 1 Z " fill="#FFD32C" transform="translate(641,493)"/>
<path d="" fill="#2D70A4" transform="translate(0,0)"/>
<path d="" fill="#2D74AB" transform="translate(0,0)"/>
<path d="" fill="#2D75AA" transform="translate(0,0)"/>
<path d="" fill="#FED330" transform="translate(0,0)"/>
<path d="" fill="#FED22D" transform="translate(0,0)"/>
<path d="" fill="#FDD32F" transform="translate(0,0)"/>
<path d="" fill="#2E75AD" transform="translate(0,0)"/>
<path d="" fill="#2E76AD" transform="translate(0,0)"/>
<path d="" fill="#FED42F" transform="translate(0,0)"/>
<path d="" fill="#2D75AE" transform="translate(0,0)"/>
<path d="M0 0 C2 1 2 1 2 1 Z " fill="#FED32B" transform="translate(678,371)"/>
<path d="" fill="#2E74AC" transform="translate(0,0)"/>
<path d="" fill="#FED52D" transform="translate(0,0)"/>
<path d="M0 0 C2 1 2 1 2 1 Z " fill="#8D936A" transform="translate(509,328)"/>
<path d="M0 0 C2 1 2 1 2 1 Z " fill="#F6CC2D" transform="translate(734,288)"/>
<path d="M0 0 C2 1 2 1 2 1 Z " fill="#EFC931" transform="translate(553,288)"/>
<path d="M0 0 C2 1 2 1 2 1 Z " fill="#F4CB30" transform="translate(584,272)"/>
<path d="M0 0 C2 1 2 1 2 1 Z " fill="#F4CB2E" transform="translate(592,269)"/>
<path d="" fill="#8A8D5C" transform="translate(0,0)"/>
<path d="" fill="#8A8E5E" transform="translate(0,0)"/>
<path d="" fill="#818A65" transform="translate(0,0)"/>
<path d="" fill="#7C8A67" transform="translate(0,0)"/>
<path d="" fill="#4C7582" transform="translate(0,0)"/>
<path d="" fill="#4E7688" transform="translate(0,0)"/>
<path d="" fill="#4D7787" transform="translate(0,0)"/>
<path d="" fill="#4B7688" transform="translate(0,0)"/>
<path d="" fill="#E3BC2E" transform="translate(0,0)"/>
<path d="" fill="#417292" transform="translate(0,0)"/>
<path d="" fill="#386F98" transform="translate(0,0)"/>
<path d="" fill="#39719A" transform="translate(0,0)"/>
<path d="" fill="#37729B" transform="translate(0,0)"/>
<path d="" fill="#346F9D" transform="translate(0,0)"/>
<path d="" fill="#2E6DA0" transform="translate(0,0)"/>
<path d="" fill="#2A6EA5" transform="translate(0,0)"/>
<path d="" fill="#2C6EA1" transform="translate(0,0)"/>
<path d="" fill="#3071A3" transform="translate(0,0)"/>
<path d="" fill="#3073A4" transform="translate(0,0)"/>
<path d="" fill="#2D6CA1" transform="translate(0,0)"/>
<path d="" fill="#2E6CA0" transform="translate(0,0)"/>
<path d="" fill="#2C6CA1" transform="translate(0,0)"/>
<path d="" fill="#2E70A5" transform="translate(0,0)"/>
<path d="" fill="#2E6EA0" transform="translate(0,0)"/>
<path d="" fill="#2E72A3" transform="translate(0,0)"/>
<path d="" fill="#2F6EA4" transform="translate(0,0)"/>
<path d="" fill="#2E70A5" transform="translate(0,0)"/>
<path d="" fill="#2D6DA1" transform="translate(0,0)"/>
<path d="" fill="#2B6DA2" transform="translate(0,0)"/>
<path d="" fill="#2E6DA4" transform="translate(0,0)"/>
<path d="" fill="#2D6CA0" transform="translate(0,0)"/>
<path d="" fill="#2D71A5" transform="translate(0,0)"/>
<path d="" fill="#2C6CA1" transform="translate(0,0)"/>
<path d="" fill="#2C6CA2" transform="translate(0,0)"/>
<path d="" fill="#2F6FA3" transform="translate(0,0)"/>
<path d="" fill="#2C6EA7" transform="translate(0,0)"/>
<path d="" fill="#2B6BA3" transform="translate(0,0)"/>
<path d="" fill="#2E6EA5" transform="translate(0,0)"/>
<path d="" fill="#2C71A6" transform="translate(0,0)"/>
<path d="" fill="#2C6DA3" transform="translate(0,0)"/>
<path d="" fill="#678988" transform="translate(0,0)"/>
<path d="" fill="#7C947E" transform="translate(0,0)"/>
<path d="" fill="#5B828B" transform="translate(0,0)"/>
<path d="" fill="#2B6CA1" transform="translate(0,0)"/>
<path d="" fill="#2D6EA5" transform="translate(0,0)"/>
<path d="" fill="#2C6CA2" transform="translate(0,0)"/>
<path d="" fill="#2C6CA2" transform="translate(0,0)"/>
<path d="" fill="#2D6FA5" transform="translate(0,0)"/>
<path d="" fill="#487C98" transform="translate(0,0)"/>
<path d="" fill="#2C6CA2" transform="translate(0,0)"/>
<path d="" fill="#D9BB3E" transform="translate(0,0)"/>
<path d="" fill="#2D72A6" transform="translate(0,0)"/>
<path d="" fill="#2C6DA6" transform="translate(0,0)"/>
<path d="" fill="#2B6BA4" transform="translate(0,0)"/>
<path d="" fill="#3F7BA1" transform="translate(0,0)"/>
<path d="" fill="#79907E" transform="translate(0,0)"/>
<path d="" fill="#2D6DA1" transform="translate(0,0)"/>
<path d="" fill="#979E6D" transform="translate(0,0)"/>
<path d="" fill="#2C6AA0" transform="translate(0,0)"/>
<path d="" fill="#2E70A4" transform="translate(0,0)"/>
<path d="" fill="#4D7E96" transform="translate(0,0)"/>
<path d="" fill="#4C7F98" transform="translate(0,0)"/>
<path d="" fill="#2E75AC" transform="translate(0,0)"/>
<path d="" fill="#467D9C" transform="translate(0,0)"/>
<path d="" fill="#2F77AF" transform="translate(0,0)"/>
<path d="" fill="#C1AF47" transform="translate(0,0)"/>
<path d="" fill="#3579AD" transform="translate(0,0)"/>
<path d="" fill="#2F75AC" transform="translate(0,0)"/>
<path d="" fill="#3D7AA4" transform="translate(0,0)"/>
<path d="" fill="#F7CB29" transform="translate(0,0)"/>
<path d="" fill="#FDD42E" transform="translate(0,0)"/>
<path d="" fill="#3679A7" transform="translate(0,0)"/>
<path d="" fill="#3576A5" transform="translate(0,0)"/>
<path d="" fill="#FED233" transform="translate(0,0)"/>
<path d="" fill="#EEC630" transform="translate(0,0)"/>
<path d="" fill="#2D6FA2" transform="translate(0,0)"/>
<path d="" fill="#FED430" transform="translate(0,0)"/>
<path d="" fill="#3475A9" transform="translate(0,0)"/>
<path d="" fill="#2F71A4" transform="translate(0,0)"/>
<path d="" fill="#F2C82F" transform="translate(0,0)"/>
<path d="" fill="#2E74AD" transform="translate(0,0)"/>
<path d="" fill="#3377A8" transform="translate(0,0)"/>
<path d="" fill="#3076AD" transform="translate(0,0)"/>
<path d="" fill="#FED42B" transform="translate(0,0)"/>
<path d="" fill="#F0C62F" transform="translate(0,0)"/>
<path d="" fill="#2F73AC" transform="translate(0,0)"/>
<path d="" fill="#2F76AD" transform="translate(0,0)"/>
<path d="" fill="#2C75AB" transform="translate(0,0)"/>
<path d="" fill="#2D6CA2" transform="translate(0,0)"/>
<path d="" fill="#FBD237" transform="translate(0,0)"/>
<path d="" fill="#3274A9" transform="translate(0,0)"/>
<path d="" fill="#FACF30" transform="translate(0,0)"/>
<path d="" fill="#2F72AB" transform="translate(0,0)"/>
<path d="" fill="#2A74AC" transform="translate(0,0)"/>
<path d="" fill="#2D70A4" transform="translate(0,0)"/>
<path d="" fill="#FFD32D" transform="translate(0,0)"/>
<path d="" fill="#2F73AA" transform="translate(0,0)"/>
<path d="" fill="#2E76AB" transform="translate(0,0)"/>
<path d="" fill="#2C75AD" transform="translate(0,0)"/>
<path d="" fill="#3073A9" transform="translate(0,0)"/>
<path d="" fill="#FED52E" transform="translate(0,0)"/>
<path d="" fill="#FFD32D" transform="translate(0,0)"/>
<path d="" fill="#FFD42E" transform="translate(0,0)"/>
<path d="" fill="#FED42B" transform="translate(0,0)"/>
<path d="" fill="#FFD42E" transform="translate(0,0)"/>
<path d="" fill="#FED42E" transform="translate(0,0)"/>
<path d="" fill="#FED42C" transform="translate(0,0)"/>
<path d="" fill="#FDD32C" transform="translate(0,0)"/>
<path d="" fill="#FFD32D" transform="translate(0,0)"/>
<path d="" fill="#FFD12B" transform="translate(0,0)"/>
<path d="" fill="#FFD42E" transform="translate(0,0)"/>
<path d="" fill="#2E75AC" transform="translate(0,0)"/>
<path d="" fill="#3074AC" transform="translate(0,0)"/>
<path d="" fill="#3075AF" transform="translate(0,0)"/>
<path d="" fill="#2E76AF" transform="translate(0,0)"/>
<path d="" fill="#FDD533" transform="translate(0,0)"/>
<path d="" fill="#FFD632" transform="translate(0,0)"/>
<path d="" fill="#2F75B0" transform="translate(0,0)"/>
<path d="" fill="#2D6CA2" transform="translate(0,0)"/>
<path d="" fill="#FED42C" transform="translate(0,0)"/>
<path d="" fill="#3177AD" transform="translate(0,0)"/>
<path d="" fill="#FFD32C" transform="translate(0,0)"/>
<path d="" fill="#2F76AC" transform="translate(0,0)"/>
<path d="" fill="#2F6EA5" transform="translate(0,0)"/>
<path d="" fill="#F5CA2F" transform="translate(0,0)"/>
<path d="" fill="#2C72A8" transform="translate(0,0)"/>
<path d="" fill="#2C71AF" transform="translate(0,0)"/>
<path d="" fill="#2F78B1" transform="translate(0,0)"/>
<path d="" fill="#FFD22B" transform="translate(0,0)"/>
<path d="" fill="#FFD42F" transform="translate(0,0)"/>
<path d="" fill="#FFD42E" transform="translate(0,0)"/>
<path d="" fill="#FFD22E" transform="translate(0,0)"/>
<path d="" fill="#FED32C" transform="translate(0,0)"/>
<path d="" fill="#FFD22E" transform="translate(0,0)"/>
<path d="" fill="#FCD22E" transform="translate(0,0)"/>
<path d="" fill="#2F77AD" transform="translate(0,0)"/>
<path d="" fill="#2E77AF" transform="translate(0,0)"/>
<path d="" fill="#2C73B0" transform="translate(0,0)"/>
<path d="" fill="#2C75B0" transform="translate(0,0)"/>
<path d="" fill="#2F77AF" transform="translate(0,0)"/>
<path d="" fill="#2D74AA" transform="translate(0,0)"/>
<path d="" fill="#2E6FA4" transform="translate(0,0)"/>
<path d="" fill="#F8CC2B" transform="translate(0,0)"/>
<path d="" fill="#FDD02A" transform="translate(0,0)"/>
<path d="" fill="#FFD32A" transform="translate(0,0)"/>
<path d="" fill="#FBCE2A" transform="translate(0,0)"/>
<path d="" fill="#2F74AB" transform="translate(0,0)"/>
<path d="" fill="#2C73AB" transform="translate(0,0)"/>
<path d="" fill="#F6CA2B" transform="translate(0,0)"/>
<path d="" fill="#FFD32F" transform="translate(0,0)"/>
<path d="" fill="#2D71A4" transform="translate(0,0)"/>
<path d="" fill="#2E72AA" transform="translate(0,0)"/>
<path d="" fill="#F7CC2B" transform="translate(0,0)"/>
<path d="" fill="#F9CC2D" transform="translate(0,0)"/>
<path d="" fill="#2C73A6" transform="translate(0,0)"/>
<path d="" fill="#FFD432" transform="translate(0,0)"/>
<path d="" fill="#2D71A9" transform="translate(0,0)"/>
<path d="" fill="#2E75AD" transform="translate(0,0)"/>
<path d="" fill="#2B72AC" transform="translate(0,0)"/>
<path d="" fill="#FFD22B" transform="translate(0,0)"/>
<path d="" fill="#2D73AB" transform="translate(0,0)"/>
<path d="" fill="#2E71A7" transform="translate(0,0)"/>
<path d="" fill="#FBCC2A" transform="translate(0,0)"/>
<path d="" fill="#2C74AC" transform="translate(0,0)"/>
<path d="" fill="#2D70A4" transform="translate(0,0)"/>
<path d="" fill="#F9CB2A" transform="translate(0,0)"/>
<path d="" fill="#2D71A5" transform="translate(0,0)"/>
<path d="" fill="#FFD22C" transform="translate(0,0)"/>
<path d="" fill="#2E75AD" transform="translate(0,0)"/>
<path d="" fill="#2D73AC" transform="translate(0,0)"/>
<path d="" fill="#2B71AA" transform="translate(0,0)"/>
<path d="" fill="#2B74AB" transform="translate(0,0)"/>
<path d="" fill="#2D70A5" transform="translate(0,0)"/>
<path d="" fill="#2B6EA2" transform="translate(0,0)"/>
<path d="" fill="#2B75AF" transform="translate(0,0)"/>
<path d="" fill="#FACE2D" transform="translate(0,0)"/>
<path d="" fill="#2E76AF" transform="translate(0,0)"/>
<path d="" fill="#2D71A4" transform="translate(0,0)"/>
<path d="" fill="#2C74AC" transform="translate(0,0)"/>
<path d="" fill="#2D6FA2" transform="translate(0,0)"/>
<path d="" fill="#F8CD2B" transform="translate(0,0)"/>
<path d="" fill="#2C76AD" transform="translate(0,0)"/>
<path d="" fill="#2E75AE" transform="translate(0,0)"/>
<path d="" fill="#2D74AA" transform="translate(0,0)"/>
<path d="" fill="#2C73AD" transform="translate(0,0)"/>
<path d="" fill="#FED32D" transform="translate(0,0)"/>
<path d="" fill="#FDD22C" transform="translate(0,0)"/>
<path d="" fill="#2A77B1" transform="translate(0,0)"/>
<path d="" fill="#2B74AB" transform="translate(0,0)"/>
<path d="" fill="#2C6FA5" transform="translate(0,0)"/>
<path d="" fill="#FBD12E" transform="translate(0,0)"/>
<path d="" fill="#2C76AE" transform="translate(0,0)"/>
<path d="" fill="#2E70A7" transform="translate(0,0)"/>
<path d="" fill="#F6C829" transform="translate(0,0)"/>
<path d="" fill="#2D74AB" transform="translate(0,0)"/>
<path d="" fill="#FDD12B" transform="translate(0,0)"/>
<path d="" fill="#2B75A9" transform="translate(0,0)"/>
<path d="" fill="#FDD22A" transform="translate(0,0)"/>
<path d="" fill="#2D75AC" transform="translate(0,0)"/>
<path d="" fill="#FFD42D" transform="translate(0,0)"/>
<path d="" fill="#2E75AD" transform="translate(0,0)"/>
<path d="" fill="#2E74AC" transform="translate(0,0)"/>
<path d="" fill="#FFD22B" transform="translate(0,0)"/>
<path d="" fill="#2D76AC" transform="translate(0,0)"/>
<path d="" fill="#2A72AA" transform="translate(0,0)"/>
<path d="" fill="#FCD12E" transform="translate(0,0)"/>
<path d="" fill="#FFD52F" transform="translate(0,0)"/>
<path d="" fill="#2E75AD" transform="translate(0,0)"/>
<path d="" fill="#3175AB" transform="translate(0,0)"/>
<path d="" fill="#2E74A8" transform="translate(0,0)"/>
<path d="" fill="#FED42D" transform="translate(0,0)"/>
<path d="" fill="#2E79B2" transform="translate(0,0)"/>
<path d="" fill="#FED42A" transform="translate(0,0)"/>
<path d="" fill="#2F71A6" transform="translate(0,0)"/>
<path d="" fill="#FFD431" transform="translate(0,0)"/>
<path d="" fill="#919A65" transform="translate(0,0)"/>
<path d="" fill="#FFD52E" transform="translate(0,0)"/>
<path d="" fill="#FFD62D" transform="translate(0,0)"/>
<path d="" fill="#FFD32B" transform="translate(0,0)"/>
<path d="" fill="#FFD531" transform="translate(0,0)"/>
<path d="" fill="#2C70A7" transform="translate(0,0)"/>
<path d="" fill="#D3BA43" transform="translate(0,0)"/>
<path d="" fill="#D9BD3F" transform="translate(0,0)"/>
<path d="" fill="#2C71A6" transform="translate(0,0)"/>
<path d="" fill="#2C70A7" transform="translate(0,0)"/>
<path d="" fill="#2D6FA4" transform="translate(0,0)"/>
<path d="" fill="#F8CA2C" transform="translate(0,0)"/>
<path d="" fill="#2C6FA4" transform="translate(0,0)"/>
<path d="" fill="#477B99" transform="translate(0,0)"/>
<path d="" fill="#3A78A1" transform="translate(0,0)"/>
<path d="" fill="#F5CC2B" transform="translate(0,0)"/>
<path d="" fill="#2C73A6" transform="translate(0,0)"/>
<path d="" fill="#39769F" transform="translate(0,0)"/>
<path d="" fill="#3777A2" transform="translate(0,0)"/>
<path d="" fill="#2E6DA4" transform="translate(0,0)"/>
<path d="" fill="#3272A1" transform="translate(0,0)"/>
<path d="" fill="#2C70A3" transform="translate(0,0)"/>
<path d="" fill="#F4C82F" transform="translate(0,0)"/>
<path d="" fill="#2D71A6" transform="translate(0,0)"/>
<path d="" fill="#F5CB2A" transform="translate(0,0)"/>
<path d="" fill="#F5CC30" transform="translate(0,0)"/>
<path d="" fill="#F6CB2F" transform="translate(0,0)"/>
<path d="" fill="#3173A4" transform="translate(0,0)"/>
<path d="" fill="#2F70A3" transform="translate(0,0)"/>
<path d="" fill="#2F73A7" transform="translate(0,0)"/>
<path d="" fill="#F6CB2B" transform="translate(0,0)"/>
<path d="" fill="#F5C92D" transform="translate(0,0)"/>
<path d="" fill="#3273A5" transform="translate(0,0)"/>
<path d="" fill="#F7CC2D" transform="translate(0,0)"/>
<path d="" fill="#F4C92D" transform="translate(0,0)"/>
<path d="" fill="#2D72A4" transform="translate(0,0)"/>
<path d="" fill="#2F72A4" transform="translate(0,0)"/>
<path d="" fill="#2E72A7" transform="translate(0,0)"/>
</svg>
